<svg width="768" height="87" viewBox="0 0 768 87" xmlns="http://www.w3.org/2000/svg" xmlns:xlink="http://www.w3.org/1999/xlink"><defs><circle id="c" cx="8" cy="8" r="8"/><circle id="e" cx="8" cy="8" r="8"/><circle id="g" cx="8" cy="8" r="8"/><circle id="i" cx="8" cy="8" r="8"/><circle id="k" cx="8" cy="8" r="8"/><circle id="m" cx="6" cy="6" r="6"/><circle id="o" cx="6" cy="6" r="6"/><circle id="q" cx="2" cy="2" r="2"/><circle id="s" cx="1" cy="1" r="1"/><circle id="u" cx="1" cy="1" r="1"/><path d="M0 2.41S3.153.05 5.923 0c2.77-.048 4.252 1.826 6.856 2.392 2.605.566 4.221.017 4.221.017v10s-2.418 1.323-5.441.725c-3.023-.599-2.703-2.726-5.57-2.906C3.12 10.048 0 12.41 0 12.41v-10z" id="a"/><path id="w" d="M27.15.085H.08v13.626h27.07z"/></defs><g fill="none" fill-rule="evenodd"><path d="M153.5 51c0 3.584 2.914 6.5 6.5 6.5 3.584 0 6.5-2.914 6.5-6.5 0-3.584-2.914-6.5-6.5-6.5a6.506 6.506 0 00-6.5 6.5zm-1.5 0c0-4.418 3.59-8 8-8 4.418 0 8 3.59 8 8 0 4.418-3.59 8-8 8-4.418 0-8-3.59-8-8zm7-4h2v5h-2v-5zm0 6h2v2h-2v-2z" fill="#F13E00" fill-rule="nonzero"/><g fill-rule="nonzero"><path d="M77 75c0-4.418 3.59-8 8-8 4.418 0 8 3.59 8 8 0 4.418-3.59 8-8 8-4.418 0-8-3.59-8-8z" fill="#FF8723"/><path fill="#FFF" d="M84 71h2v5h-2zM84 77h2v2h-2z"/></g><path d="M101.982 44.995a1.988 1.988 0 00-1.982 2v9c0 1.107.884 2 1.982 2h8.92c1.097 0 1.982-.892 2.072-2v-5h-.069A2.002 2.002 0 00110.902 53v2.995c0 .003-8.92 0-8.92 0-.003 0 0-9 0-9 0-.003 2.954 0 2.954 0a1.999 1.999 0 002.002-2h-4.956zm10.42-.994l1.606 1.607-7.357 7.034-2.102.384.294-1.81L112.402 44z" fill="#BEC5D1" fill-rule="nonzero"/><g fill-rule="nonzero" fill="#57BC62"><path d="M96 34c8.837 0 16-7.163 16-16S104.837 2 96 2 80 9.163 80 18s7.163 16 16 16zm0 2c-9.941 0-18-8.059-18-18S86.059 0 96 0s18 8.059 18 18-8.059 18-18 18z"/><path d="M93.286 20.686L90.71 18.11a1 1 0 10-1.414 1.414l3.253 3.253a1.01 1.01 0 00.03.03.997.997 0 001.413.001l9.1-9.1a.998.998 0 000-1.414.997.997 0 00-1.413 0l-8.393 8.392z"/></g><g transform="translate(116)" fill-rule="nonzero"><circle fill="#57BC62" cx="18" cy="18" r="18"/><path d="M15.286 20.686L12.71 18.11a1 1 0 10-1.414 1.414l3.253 3.253a1.01 1.01 0 00.03.03.997.997 0 001.413.001l9.1-9.1a.998.998 0 000-1.414.997.997 0 00-1.413 0l-8.393 8.392z" fill="#FFF"/></g><g fill-rule="nonzero" fill="#BEC5D1"><path d="M750 34c8.837 0 16-7.163 16-16s-7.163-16-16-16-16 7.163-16 16 7.163 16 16 16zm-18-16c0-9.941 8.059-18 18-18s18 8.059 18 18-8.059 18-18 18-18-8.059-18-18z"/><path d="M747.286 20.686l-2.576-2.576a1 1 0 10-1.414 1.414l3.253 3.253a1.01 1.01 0 00.03.03.997.997 0 001.413.001l9.1-9.1a.998.998 0 000-1.414.997.997 0 00-1.413 0l-8.393 8.392z"/></g><g transform="translate(49 63)" fill-rule="nonzero"><circle fill="#57BC62" cx="12" cy="12" r="12"/><path d="M10.19 13.79l-1.717-1.717a.666.666 0 10-.943.943l2.17 2.169a.673.673 0 00.02.02c.261.262.681.26.941 0l6.067-6.067a.665.665 0 000-.942.665.665 0 00-.942 0L10.19 13.79z" fill="#FFF"/></g><g fill-rule="nonzero" fill="#F13E00"><path d="M57 34c8.837 0 16-7.163 16-16S65.837 2 57 2 41 9.163 41 18s7.163 16 16 16zm0 2c-9.941 0-18-8.059-18-18S47.059 0 57 0s18 8.059 18 18-8.059 18-18 18z"/><path d="M56.939 16.532L51.706 11.3a.998.998 0 00-1.413.002.996.996 0 00-.001 1.412l5.233 5.234-5.233 5.233a.996.996 0 00.001 1.412.998.998 0 001.413.002l5.233-5.233 5.236 5.235a.998.998 0 001.412-.001.996.996 0 00.002-1.413l-5.236-5.235 5.236-5.236a.996.996 0 00-.002-1.412.998.998 0 00-1.412-.002l-5.236 5.235z"/></g><path d="M18 34c8.837 0 16-7.163 16-16S26.837 2 18 2 2 9.163 2 18s7.163 16 16 16zm0 2C8.059 36 0 27.941 0 18S8.059 0 18 0s18 8.059 18 18-8.059 18-18 18zM17 9.008C17 8.451 17.444 8 18 8c.552 0 1 .456 1 1.008v11.698c0 .557-.444 1.008-1 1.008-.552 0-1-.456-1-1.008V9.008zM16.5 25.5c0-.828.666-1.5 1.5-1.5.828 0 1.5.666 1.5 1.5 0 .828-.666 1.5-1.5 1.5-.828 0-1.5-.666-1.5-1.5z" fill-rule="nonzero" fill="#EBA842"/><path d="M288 34c8.837 0 16-7.163 16-16s-7.163-16-16-16-16 7.163-16 16 7.163 16 16 16zm0 2c-9.941 0-18-8.059-18-18s8.059-18 18-18 18 8.059 18 18-8.059 18-18 18zm-1-26.992c0-.557.444-1.008 1-1.008.552 0 1 .456 1 1.008v11.698c0 .557-.444 1.008-1 1.008-.552 0-1-.456-1-1.008V9.008zm-.5 16.492c0-.828.666-1.5 1.5-1.5.828 0 1.5.666 1.5 1.5 0 .828-.666 1.5-1.5 1.5-.828 0-1.5-.666-1.5-1.5z" fill-rule="nonzero" fill="#F13E00"/><path d="M327 34c8.837 0 16-7.163 16-16s-7.163-16-16-16-16 7.163-16 16 7.163 16 16 16zm0 2c-9.941 0-18-8.059-18-18s8.059-18 18-18 18 8.059 18 18-8.059 18-18 18zm-7-24.997A.999.999 0 01321 10c.552 0 1 .438 1 1.003v15.704a.999.999 0 01-1 1.003c-.552 0-1-.438-1-1.003V11.003z" fill="#09F" fill-rule="nonzero"/><g transform="translate(320 8)"><path d="M0 2.41S3.153.05 5.923 0c2.77-.048 4.252 1.826 6.856 2.392 2.605.566 4.221.017 4.221.017v10s-2.418 1.323-5.441.725c-3.023-.599-2.703-2.726-5.57-2.906C3.12 10.048 0 12.41 0 12.41v-10z" id="b"/><g mask="url(#b)" stroke="#09F" stroke-width="4"><path d="M0 2.41S3.153.05 5.923 0c2.77-.048 4.252 1.826 6.856 2.392 2.605.566 4.221.017 4.221.017v10s-2.418 1.323-5.441.725c-3.023-.599-2.703-2.726-5.57-2.906C3.12 10.048 0 12.41 0 12.41v-10h0z"/></g></g><g fill-rule="nonzero" fill="#8C939F"><path d="M172 34c8.837 0 16-7.163 16-16s-7.163-16-16-16-16 7.163-16 16 7.163 16 16 16zm0 2c-9.941 0-18-8.059-18-18s8.059-18 18-18 18 8.059 18 18-8.059 18-18 18z"/><path d="M173 17V9h-2v8h-8v2h8v8h2v-8h8v-2z"/></g><path d="M230.991 31.65c.281.47.74.463 1.017 0l2.873-4.8c.28-.47.067-.85-.493-.85h-5.776c-.553 0-.77.387-.493.85l2.872 4.8z" fill="#8C939F" fill-rule="nonzero"/><path d="M240.991 26.344c.281-.47.74-.463 1.017 0l2.873 4.805c.28.47.067.851-.493.851h-5.776c-.553 0-.77-.388-.493-.85l2.872-4.806z" fill="#57BC62" fill-rule="nonzero"/><g transform="translate(193)"><circle fill="#FF8C42" fill-rule="nonzero" cx="13" cy="13" r="13"/><path stroke="#8D95A1" stroke-width="1.5" d="M71 9l-10 9.61 10 9.61"/><path d="M13.906 8c0-.552-.441-1-.992-1h-.097a.994.994 0 00-.992 1v3.31l-3.28-1.82a1.048 1.048 0 00-1.398.366l-.012.02a.96.96 0 00.355 1.338l3.428 1.902-3.428 1.902a.957.957 0 00-.355 1.338l.012.02c.284.473.899.643 1.397.366l3.28-1.82v3.07A.998.998 0 0012.818 19h.097a1 1 0 00.992-1.002v-3.224l3.557 1.972a1.044 1.044 0 001.39-.37l.012-.02a.96.96 0 00-.355-1.338l-3.428-1.902 3.428-1.902a.957.957 0 00.355-1.338l-.012-.02a1.044 1.044 0 00-1.39-.37l-3.557 1.973V8z" fill="#FFF" fill-rule="nonzero"/></g><path fill="#09F" fill-rule="nonzero" d="M228 10h1v10h-1z"/><path fill="#09F" fill-rule="nonzero" d="M228 10h4v1h-4zM234 10h4v1h-4zM237 16h1v4h-1z"/><path fill="#09F" fill-rule="nonzero" d="M237 10h1v4h-1zM228 19h10v1h-10z"/><path d="M231.968 16l5.444-5.285" stroke="#09F" stroke-width="1.2"/><g fill-rule="nonzero" fill="#57BC62"><path d="M178 47h2v8h-2z"/><path d="M183 50v2h-8v-2z"/></g><g transform="translate(171 43)"><circle cx="8" cy="8" r="8" id="d"/><g fill-rule="nonzero" fill="#57BC62" mask="url(#d)"><path d="M7 4h2v8H7z"/><path d="M12 7v2H4V7z"/></g><g><mask id="f" fill="#fff"><use xlink:href="#e"/></mask><g mask="url(#f)" stroke-width="3" stroke="#57BC62"><circle cx="8" cy="8" r="8"/></g></g></g><g fill-rule="nonzero" fill="#FFF"><path d="M373 47h2v8h-2z"/><path d="M378 50v2h-8v-2z"/></g><circle cx="8" cy="8" r="8" transform="translate(366 43)"/><g transform="translate(366 43)"><mask id="h" fill="#fff"><use xlink:href="#g"/></mask><g mask="url(#h)" stroke-width="3" stroke="#FFF"><circle cx="8" cy="8" r="8"/></g></g><g fill-rule="nonzero" fill="#57BC62"><path d="M393 55c9 0 9 6 9 6h-18s0-6 9-6zm6 4c-1.043-1.22-2.542-2.006-6-2.006s-4.957.786-6 2.006h12zM394 50.003V54.1l-5.026-1.005c-2.196-.44-3.974-2.605-3.974-4.838V46h5c2.2 0 4 1.792 4 4.003zm-2 0c0-1.103-.9-2.003-2-2.003h-3c0 1.536 1.105 2.881 2.366 3.134l2.652.53-.018-1.661z"/><path d="M392 49v7a1 1 0 002 0v-7a1 1 0 10-2 0z"/><path d="M392 47.003c0-2.211 1.8-4.003 4-4.003h5v2.257c0 2.233-1.778 4.399-3.974 4.838L392 51.1v-4.097zm4.634 1.13C397.895 47.882 399 46.537 399 45h-3c-1.1 0-2 .9-2 2.003v1.666l2.634-.535z"/></g><path d="M198 59a8 8 0 110-16 8 8 0 010 16zm0-1.5a6.5 6.5 0 100-13 6.5 6.5 0 000 13zm0-2.5a1 1 0 100-2 1 1 0 000 2zm.294-2.963l.043-.511c1.189-.211 2.163-.845 2.163-2.246v-.023c0-1.39-1.017-2.257-2.516-2.257-.985 0-1.702.367-2.27.923a.635.635 0 00-.214.478c0 .334.268.612.6.612.15 0 .289-.067.396-.156.428-.4.888-.612 1.456-.612.77 0 1.231.434 1.231 1.057v.022c0 .7-.557 1.1-1.563 1.201-.29.033-.46.256-.418.556l.107.956h.985z" fill-rule="nonzero" fill="#8C939F"/><path d="M122 50v6c0 .002-.002 0 .009 0h7.982c.006 0 .009-.003.009 0v-6c0-.002.002 0-.009 0h-7.982c-.006 0-.009.003-.009 0zm-2 0c0-1.105.902-2 2.009-2h7.982A2 2 0 01132 50v6c0 1.105-.902 2-2.009 2h-7.982A2 2 0 01120 56v-6zm5 2h2v2h-2v-2zm1-9c2.21 0 4 1.795 4 4v1h-8v-1c0-2.21 1.795-4 4-4zm-2 5h4v-1c0-1.102-.897-2-2-2-1.102 0-2 .897-2 2v1z" fill="#BEC5D1" fill-rule="nonzero"/><path d="M138 50v6c0 .002-.002 0 .009 0h7.982c.006 0 .009-.003.009 0v-6c0-.002.002 0-.009 0h-7.982c-.006 0-.009.003-.009 0zm-2 0c0-1.105.902-2 2.009-2h7.982A2 2 0 01148 50v6c0 1.105-.902 2-2.009 2h-7.982A2 2 0 01136 56v-6zm5 2h2v2h-2v-2zm1-9c2.21 0 4 1.795 4 4v1h-8v-1c0-2.21 1.795-4 4-4zm-2 5h4v-1c0-1.102-.897-2-2-2-1.102 0-2 .897-2 2v1z" fill="#FFF" fill-rule="nonzero"/><g fill-rule="nonzero" fill="#3F4652"><path d="M213 47h2v8h-2z"/><path d="M218 50v2h-8v-2z"/></g><path d="M39.5 60H45c2.213 0 4-1.789 4-4V44c0-1.107-.895-2-2-2H34c-1.11 0-2 .893-2 2v12-2h2s-.002-9.995 0-10c.002.005 13 .004 13 0v12c0 1.109-.893 2-2 2v-4h-5.5H45v6h-5.5zm5.5-6v6H32c-1.657 0-3-1.347-3-3v-3h16zm-2 3v-.995L31 56v1c0 .55.45 1 1 1h11.004S43 58.045 43 57zm-7-11h8v2h-8v-2zm0 4h4v2h-4v-2z" fill="#BEC5D1" fill-rule="nonzero"/><g fill-rule="nonzero" fill="#BEC5D1"><path d="M85 54c9 0 9 6 9 6H76s0-6 9-6zm6 4c-1.043-1.22-2.542-2.006-6-2.006s-4.957.786-6 2.006h12zM86 49.003V53.1l-5.026-1.005C78.778 51.655 77 49.49 77 47.257V45h5c2.2 0 4 1.792 4 4.003zm-2 0C84 47.9 83.1 47 82 47h-3c0 1.536 1.105 2.881 2.366 3.134l2.652.53L84 49.003z"/><path d="M84 48v7a1 1 0 002 0v-7a1 1 0 10-2 0z"/><path d="M84 46.003C84 43.792 85.8 42 88 42h5v2.257c0 2.233-1.778 4.399-3.974 4.838L84 50.1v-4.097zm4.634 1.13C89.895 46.882 91 45.537 91 44h-3c-1.1 0-2 .9-2 2.003v1.666l2.634-.535z"/></g><path d="M20 46h2.01c1.099 0 1.99.897 1.99 2.006v9.988A2.003 2.003 0 0122.01 60H5.99C4.892 60 4 59.103 4 57.994V56h2v1.994c0 .007-.001.006-.01.006h16.02c-.013 0-.01-.003-.01-.006v-9.988c0-.007.001-.006.01-.006H20v-2zM0 44.006C0 42.898.898 42 1.99 42h16.02c1.099 0 1.99.897 1.99 2.006v9.988A2.003 2.003 0 0118.01 56H1.99C.892 56 0 55.103 0 53.994v-9.988zm2 0v9.988c0 .007-.001.006-.01.006h16.02c-.013 0-.01-.003-.01-.006v-9.988c0-.007.001-.006.01-.006H1.99c.013 0 .01.003.01.006zM5 50a1 1 0 100-2 1 1 0 000 2zm10 0a1 1 0 100-2 1 1 0 000 2zm-7-1c0-1.105.888-2 2-2 1.105 0 2 .888 2 2 0 1.105-.888 2-2 2-1.105 0-2-.888-2-2z" fill="#BEC5D1" fill-rule="nonzero"/><g transform="translate(54 42)"><path d="M17.64 11.526a9 9 0 11-.475-6.316h-2.278a7 7 0 10.644 6.316h2.11z" fill="#BEC5D1" fill-rule="nonzero"/><circle fill="#BEC5D1" fill-rule="nonzero" cx="9" cy="9" r="2"/><path stroke="#BEC5D1" stroke-width="1.5" d="M12.596 5.435l3.555-.026.86-3.555"/></g><path d="M229.164 51.986H222v-2h7.157l-1.285-1.285a.993.993 0 01.007-1.408 1 1 0 011.407-.007l2.842 2.842a.986.986 0 01.276.861.986.986 0 01-.276.862l-2.842 2.841a1 1 0 01-1.407-.006.993.993 0 01-.007-1.408l1.292-1.292z" fill="#FF8C42" fill-rule="nonzero"/><path d="M243.164 51.986H236v-2h7.157l-1.285-1.285a.993.993 0 01.007-1.408 1 1 0 011.407-.007l2.842 2.842a.986.986 0 01.276.861.986.986 0 01-.276.862l-2.842 2.841a1 1 0 01-1.407-.006.993.993 0 01-.007-1.408l1.292-1.292z" fill="#09F" fill-rule="nonzero"/><path d="M258.164 51.986H251v-2h7.157l-1.285-1.285a.993.993 0 01.007-1.408 1 1 0 011.407-.007l2.842 2.842a.986.986 0 01.276.861.986.986 0 01-.276.862l-2.842 2.841a1 1 0 01-1.407-.006.993.993 0 01-.007-1.408l1.292-1.292z" fill="#57BC62" fill-rule="nonzero"/><path d="M273.164 51.986H266v-2h7.157l-1.285-1.285a.993.993 0 01.007-1.408 1 1 0 011.407-.007l2.842 2.842a.986.986 0 01.276.861.986.986 0 01-.276.862l-2.842 2.841a1 1 0 01-1.407-.006.993.993 0 01-.007-1.408l1.292-1.292z" fill="#F13E00" fill-rule="nonzero"/><path d="M288.164 51.986H281v-2h7.157l-1.285-1.285a.993.993 0 01.007-1.408 1 1 0 011.407-.007l2.842 2.842a.986.986 0 01.276.861.986.986 0 01-.276.862l-2.842 2.841a1 1 0 01-1.407-.006.993.993 0 01-.007-1.408l1.292-1.292z" fill="#EBA842" fill-rule="nonzero"/><path d="M342.761 52.29a1.058 1.058 0 00-1.457.002.975.975 0 00-.002 1.412l4.382 4.247c.22.214.523.31.816.286.293.024.595-.072.816-.286l4.382-4.247a.974.974 0 00-.002-1.412 1.058 1.058 0 00-1.457-.002l-3.739 3.623-3.739-3.623zM301.001 53.416l-3.174 3.174-1.41 1.41.704-.703a1.004 1.004 0 01-1.413-.002.997.997 0 01-.003-1.413l-.703.703 1.41-1.41 3.174-3.174-3.174-3.174-1.41-1.41.703.704a1.004 1.004 0 01.003-1.413.997.997 0 011.413-.003l-.704-.703 1.41 1.41 3.174 3.174 3.174-3.174 1.41-1.41-.703.703a1.004 1.004 0 011.413.003.997.997 0 01.002 1.413l.703-.704-1.41 1.41-3.174 3.174 3.174 3.174 1.41 1.41-.703-.703a1.004 1.004 0 01-.002 1.413.997.997 0 01-1.413.002l.703.703-1.41-1.41-3.174-3.174z" fill="#8C939F" fill-rule="nonzero"/><path d="M410.001 53.416l-3.174 3.174-1.41 1.41.704-.703a1.004 1.004 0 01-1.413-.002.997.997 0 01-.003-1.413l-.703.703 1.41-1.41 3.174-3.174-3.174-3.174-1.41-1.41.703.704a1.004 1.004 0 01.003-1.413.997.997 0 011.413-.003l-.704-.703 1.41 1.41 3.174 3.174 3.174-3.174 1.41-1.41-.703.703a1.004 1.004 0 011.413.003.997.997 0 01.002 1.413l.703-.704-1.41 1.41-3.174 3.174 3.174 3.174 1.41 1.41-.703-.703a1.004 1.004 0 01-.002 1.413.997.997 0 01-1.413.002l.703.703-1.41-1.41-3.174-3.174z" fill="#FFF" fill-rule="nonzero"/><path d="M431 50v2h-8v-2z" fill-rule="nonzero" fill="#8D95A1"/><circle cx="8" cy="8" r="8" transform="translate(419 43)"/><g transform="translate(419 43)"><mask id="j" fill="#fff"><use xlink:href="#i"/></mask><path fill="#8D95A1" fill-rule="nonzero" mask="url(#j)" d="M4 7h8v2H4z"/></g><g transform="translate(419 43)"><mask id="l" fill="#fff"><use xlink:href="#k"/></mask><g mask="url(#l)" stroke-width="3" stroke="#8D95A1"><circle cx="8" cy="8" r="8"/></g></g><path d="M346.5 47.327l-3.739 3.624a1.058 1.058 0 01-1.457-.002.975.975 0 01-.002-1.413l4.382-4.246c.22-.214.523-.31.816-.286.293-.025.595.072.816.286l4.382 4.246a.974.974 0 01-.002 1.413c-.403.39-1.06.386-1.457.002l-3.739-3.624z" fill="#8C939F" fill-rule="nonzero"/><path d="M420.761 14.29a1.058 1.058 0 00-1.457.002.975.975 0 00-.002 1.412l4.382 4.247c.22.214.523.31.816.286.293.024.595-.072.816-.286l4.382-4.247a.974.974 0 00-.002-1.412 1.058 1.058 0 00-1.457-.002l-3.739 3.623-3.739-3.623zM424.5 9.327l-3.739 3.624a1.058 1.058 0 01-1.457-.002.975.975 0 01-.002-1.413l4.382-4.246c.22-.214.523-.31.816-.286.293-.025.595.072.816.286l4.382 4.246a.974.974 0 01-.002 1.413c-.403.39-1.06.386-1.457.002L424.5 9.327z" fill="#09F" fill-rule="nonzero"/><path d="M334.913 52.33l-3.623-3.623a1.003 1.003 0 01.002-1.412.996.996 0 011.412-.003l4.247 4.247c.214.214.31.507.286.791a.997.997 0 01-.286.79l-4.247 4.248a.996.996 0 01-1.412-.002 1.003 1.003 0 01-.002-1.413l3.623-3.623z" fill="#8C939F" fill-rule="nonzero"/><path d="M359.913 52.33l-3.623-3.623a1.003 1.003 0 01.002-1.412.996.996 0 011.412-.003l4.247 4.247c.214.214.31.507.286.791a.997.997 0 01-.286.79l-4.247 4.248a.996.996 0 01-1.412-.002 1.003 1.003 0 01-.002-1.413l3.623-3.623zM370.327 29.33l3.624-3.623a1.003 1.003 0 00-.002-1.412.996.996 0 00-1.413-.003l-4.246 4.247a.997.997 0 00-.286.791.997.997 0 00.286.79l4.246 4.248a.996.996 0 001.413-.002c.39-.39.386-1.028.002-1.413l-3.624-3.623zM424.5 33.913l-3.739-3.623a1.058 1.058 0 00-1.457.002.975.975 0 00-.002 1.412l4.382 4.247c.22.214.523.31.816.286.293.024.595-.072.816-.286l4.382-4.247a.974.974 0 00-.002-1.412 1.058 1.058 0 00-1.457-.002l-3.739 3.623zM424.5 25.327l-3.739 3.624a1.058 1.058 0 01-1.457-.002.975.975 0 01-.002-1.413l4.382-4.246c.22-.214.523-.31.816-.286.293-.025.595.072.816.286l4.382 4.246a.974.974 0 01-.002 1.413c-.403.39-1.06.386-1.457.002l-3.739-3.624z" fill="#FFF" fill-rule="nonzero"/><path d="M370.327 12.33l3.624-3.623a1.003 1.003 0 00-.002-1.412.996.996 0 00-1.413-.003l-4.246 4.247a.997.997 0 00-.286.791.997.997 0 00.286.79l4.246 4.248a.996.996 0 001.413-.002c.39-.39.386-1.028.002-1.413l-3.624-3.623z" fill="#8C939F" fill-rule="nonzero"/><g fill-rule="nonzero" fill="#3F4652"><path d="M312.999 45.86c.276-.475.73-.466 1.002 0l2.498 4.28c.276.475.063.86-.502.86h-4.994c-.554 0-.773-.394-.502-.86L313 45.86zM312.999 59.14c.276.475.73.466 1.002 0l2.498-4.28c.276-.475.063-.86-.502-.86h-4.994c-.554 0-.773.394-.502.86L313 59.14z"/></g><path d="M322.999 55.14c.276.475.73.466 1.002 0l2.498-4.28c.276-.475.063-.86-.502-.86h-4.994c-.554 0-.773.394-.502.86L323 55.14z" fill-rule="nonzero" fill="#3F4652"/><circle cx="6" cy="6" r="6" transform="translate(349 22)"/><g transform="translate(349 22)"><mask id="n" fill="#fff"><use xlink:href="#m"/></mask><g mask="url(#n)" stroke-width="3" stroke="#9197A3"><circle cx="6" cy="6" r="6"/></g></g><path d="M359.5 32.5l2.828 2.828" stroke="#8C939F" stroke-width="1.5"/><circle cx="6" cy="6" r="6" transform="translate(96 69)"/><g transform="translate(96 69)"><mask id="p" fill="#fff"><use xlink:href="#o"/></mask><g mask="url(#p)" stroke-width="3" stroke="#FFF"><circle cx="6" cy="6" r="6"/></g></g><path fill="#FFF" fill-rule="nonzero" d="M99.5 74h5.008v2H99.5z"/><path d="M106.5 79.5l2.828 2.828" stroke="#FFF" stroke-width="1.5"/><path fill="#8D95A1" fill-rule="nonzero" d="M356 10V4h-2v6h-6v2h6v6h2v-6h6v-2z"/><path d="M398 34c8.837 0 16-7.163 16-16s-7.163-16-16-16-16 7.163-16 16 7.163 16 16 16zm0 2c-9.941 0-18-8.059-18-18s8.059-18 18-18 18 8.059 18 18-8.059 18-18 18zm-1-26.992c0-.557.444-1.008 1-1.008.552 0 1 .456 1 1.008v11.698c0 .557-.444 1.008-1 1.008-.552 0-1-.456-1-1.008V9.008zm-.5 16.492c0-.828.666-1.5 1.5-1.5.828 0 1.5.666 1.5 1.5 0 .828-.666 1.5-1.5 1.5-.828 0-1.5-.666-1.5-1.5z" fill-rule="nonzero" fill="#09F"/><path fill="#3B537D" fill-rule="nonzero" d="M450.27 14.263L442.54 5 436 14.263V27h22.595V14.263z"/><path fill="#E6E6E6" fill-rule="nonzero" d="M469 27h-19.027V14.263H469z"/><g fill-rule="nonzero" fill="#09F"><path d="M486.716 19.973a1 1 0 001.396.017l6.295-5.987a1 1 0 00-1.378-1.449l-5.589 5.315-3.212-3.211a1 1 0 00-1.414 0l-6.874 6.872a1 1 0 101.414 1.414l6.167-6.165 3.195 3.194z"/><path d="M477 10a1 1 0 10-2 0v16a1 1 0 001 1h19a1 1 0 000-2h-18V10zM494.76 14.864a2.936 2.936 0 002.94-2.932A2.936 2.936 0 00494.76 9a2.936 2.936 0 00-2.942 2.932 2.936 2.936 0 002.941 2.932zm0-2a.936.936 0 01-.942-.932c0-.514.42-.932.941-.932.52 0 .94.418.94.932s-.42.932-.94.932z"/></g><path fill="#FFF" fill-rule="nonzero" d="M463 5h-20l7 10h19zM447 31.545a.55.55 0 01.555-.545h20.89c.307 0 .555.247.555.545v20.9A3.55 3.55 0 01465.44 56h-17.885a.552.552 0 01-.555-.545v-23.91z"/><path d="M481 36.194c0-.107.087-.194.191-.194h17.618c.1 0 .191.093.191.194v9.612a.194.194 0 01-.191.194h-4.03s-.248-5.782-.248-6.22c0-2.561-13.531-1.133-13.531-1.133v-2.453zm-2 0v2.43c0 1.39 15.17.393 15.53.841.362.449.318 8.535.318 8.535h3.96c1.21 0 2.192-.983 2.192-2.194v-9.612A2.2 2.2 0 00498.809 34H481.19c-1.21 0-2.191.983-2.191 2.194z" fill="#09F" fill-rule="nonzero"/><path d="M476 40.194c0-.107.087-.194.191-.194h17.618c.1 0 .191.093.191.194v9.612a.194.194 0 01-.191.194H476.19a.201.201 0 01-.191-.194v-9.612zm-2 0v9.612A2.2 2.2 0 00476.191 52h17.618c1.21 0 2.191-.983 2.191-2.194v-9.612A2.2 2.2 0 00493.809 38H476.19c-1.21 0-2.191.983-2.191 2.194z" fill="#09F" fill-rule="nonzero"/><circle cx="2" cy="2" r="2" fill-rule="nonzero" fill="#FFF" transform="translate(483 43)"/><g transform="translate(483 43)"><mask id="r" fill="#fff"><use xlink:href="#q"/></mask><circle stroke="#09F" stroke-width="4.496" mask="url(#r)" cx="2" cy="2" r="2"/></g><circle cx="1" cy="1" r="1" fill-rule="nonzero" fill="#FFF" transform="translate(479 44)"/><g transform="translate(479 44)"><mask id="t" fill="#fff"><use xlink:href="#s"/></mask><circle stroke="#09F" stroke-width="2.496" mask="url(#t)" cx="1" cy="1" r="1"/></g><g><circle cx="1" cy="1" r="1" fill-rule="nonzero" fill="#FFF" transform="translate(489 44)"/><g transform="translate(489 44)"><mask id="v" fill="#fff"><use xlink:href="#u"/></mask><circle stroke="#09F" stroke-width="2.496" mask="url(#v)" cx="1" cy="1" r="1"/></g></g><g fill-rule="nonzero" fill="#09F"><path d="M514 21v5a1 1 0 001 1h5a1 1 0 001-1V15a1 1 0 00-2 0v10h-3v-5a1 1 0 00-1-1h-5a1 1 0 00-1 1v5h-3V15a1 1 0 10-2 0v11a1 1 0 001 1h5a1 1 0 001-1v-5h3z"/><path d="M505.61 13l7.15-5.72 7.149 5.72H505.61zm-3.475.22c-.738.59-.32 1.78.625 1.78h20c.945 0 1.362-1.19.624-1.78l-10-8a1 1 0 00-1.249 0l-10 8z"/><path d="M504 8.003A.999.999 0 01505 7c.552 0 1 .438 1 1.003v4.994A.999.999 0 01505 14c-.552 0-1-.438-1-1.003V8.003z"/></g><g fill-rule="nonzero" fill="#3F4652"><path d="M505.959 50h13v-9.885c0-.037-.11-.307-.136-.335l-3.534-3.67a2.476 2.476 0 00-.264-.11h-9.066v14zm-2-14.005c0-1.102.888-1.995 1.994-1.995h9.072c.558 0 1.317.32 1.704.722l3.535 3.671c.384.399.695 1.166.695 1.722v9.886c0 1.104-.89 1.999-2 1.999h-13c-1.105 0-2-.893-2-1.995v-14.01z"/><path d="M507.947 41.981h4v2h-4zM511.951 37.98v2h-4.004v-2zM513.91 34.53l.038 5.43c.008 1.107.909 1.998 2.018 1.99l4.8-.032-.014-2-4.8.033c-.003 0-.042-5.436-.042-5.436l-2 .014zM507.947 45.98h9v2h-9z"/></g><path d="M446 56c-1.542 0-3-1.458-3-3v-4c0-.757.242-1 1-1h19c.39 0 .62.243 1 1-.394-.456-.632 2.896 0 4 .78 1.993 3 3 3 3h-21z" fill="#E6E6E6" fill-rule="nonzero"/><rect fill="#3B537C" fill-rule="nonzero" x="450" y="36" width="14" height="3" rx=".277"/><path d="M450 42.277c0-.153.124-.277.272-.277h10.456c.15 0 .272.129.272.277v2.446a.276.276 0 01-.272.277h-10.456a.278.278 0 01-.272-.277v-2.446z" fill="#3B537C" fill-rule="nonzero"/><path d="M27.15.085H.08v13.626h27.07z"/><g><path d="M561.668 6.016c-4.22 1.41-7.816 4.491-9.819 8.391a16.473 16.473 0 00-1.509 4.255 16.605 16.605 0 001.5 10.936 17.152 17.152 0 004.704 5.646 17.429 17.429 0 006.297 3.1c2.888.754 5.962.736 8.868.09 2.627-.59 5.114-1.818 7.098-3.6 2.096-1.881 3.596-4.354 4.388-7.018.866-2.9.978-6 .437-8.981h-16.3v6.6h9.445c-.364 2.109-1.65 4.036-3.466 5.227-1.145.754-2.459 1.236-3.819 1.473-1.36.227-2.776.254-4.136-.01a10.389 10.389 0 01-3.856-1.627 10.482 10.482 0 01-3.968-5.19c-.736-2.119-.746-4.473 0-6.582a10.523 10.523 0 012.515-3.991c1.397-1.4 3.213-2.4 5.179-2.81a10.584 10.584 0 015.086.2 9.38 9.38 0 013.735 2.146l3.186-3.11c.559-.554 1.146-1.09 1.686-1.663a16.967 16.967 0 00-5.58-3.372c-3.726-1.346-7.918-1.373-11.671-.11" fill-rule="nonzero" fill="#FFF"/><path d="M578.919 5.09h-27.07v13.626h27.07z" fill-rule="nonzero" fill="#FFF"/><g transform="translate(551.77 5.005)"><mask id="x" fill="#fff"><use xlink:href="#w"/></mask><path d="M9.898 1.011c3.744-1.264 7.945-1.236 11.671.1a16.909 16.909 0 015.58 3.373c-.54.572-1.127 1.109-1.686 1.663l-3.186 3.11a9.49 9.49 0 00-3.735-2.146 10.472 10.472 0 00-5.086-.2 10.425 10.425 0 00-5.18 2.81 10.454 10.454 0 00-2.514 3.99C3.87 12.275 1.98 10.847.08 9.411c2.002-3.91 5.598-6.99 9.818-8.4" fill="#E04D3F" fill-rule="nonzero" mask="url(#x)"/></g><path d="M550.35 18.653c.307-1.473.81-2.91 1.509-4.255 1.89 1.437 3.782 2.864 5.682 4.3a9.968 9.968 0 000 6.582c-1.891 1.436-3.782 2.873-5.673 4.3-1.751-3.336-2.282-7.254-1.518-10.927" fill="#F5BD00" fill-rule="nonzero"/><path d="M567.331 18.826h16.301c.54 2.972.42 6.072-.437 8.981-.792 2.664-2.292 5.137-4.388 7.019l-5.505-4.173c1.816-1.191 3.102-3.118 3.465-5.227h-9.445c.01-2.2.01-4.4.01-6.6" fill="#4B91F6" fill-rule="nonzero"/><path d="M551.85 29.59c1.89-1.428 3.781-2.864 5.672-4.3a10.535 10.535 0 003.969 5.19 10.454 10.454 0 003.856 1.627c1.36.273 2.767.237 4.136.01 1.36-.237 2.673-.719 3.819-1.473l5.505 4.172c-1.984 1.791-4.471 3.01-7.098 3.6-2.906.646-5.98.664-8.868-.09a17.284 17.284 0 01-6.297-3.1 17.114 17.114 0 01-4.695-5.637" fill="#0CA864" fill-rule="nonzero"/></g><path d="M214 46a8 8 0 110-16 8 8 0 010 16zm0-1.5a6.5 6.5 0 100-13 6.5 6.5 0 000 13zm0-2.5a1 1 0 100-2 1 1 0 000 2zm.294-2.963l.043-.511c1.189-.211 2.163-.845 2.163-2.246v-.023c0-1.39-1.017-2.257-2.516-2.257-.985 0-1.702.367-2.27.923a.635.635 0 00-.214.478c0 .334.268.612.6.612.15 0 .289-.067.396-.156.428-.4.888-.612 1.456-.612.77 0 1.231.434 1.231 1.057v.022c0 .7-.557 1.1-1.563 1.201-.29.033-.46.256-.418.556l.107.956h.985z" fill="#FFF" fill-rule="nonzero"/><g fill-rule="nonzero"><path d="M589 25.85c0-.47.377-.85.854-.85h22.292c.472 0 .854.386.854.85v13.3c0 .47-.377.85-.854.85h-22.292a.855.855 0 01-.854-.85v-13.3z" fill="#FFF"/><path fill="#3B537D" d="M589 28h24v3h-24z"/><path fill="#61C66C" d="M591 36h5v2h-5z"/><path fill="#61C66C" opacity=".3" d="M597 36h5v2h-5z"/></g><g fill-rule="nonzero"><path d="M589 6.85c0-.47.377-.85.854-.85h22.292c.472 0 .854.386.854.85v13.3c0 .47-.377.85-.854.85h-22.292a.855.855 0 01-.854-.85V6.85z" fill="#EAECEE"/><path fill="#3B537D" d="M589 9h24v3h-24z"/><path fill="#61C66C" d="M591 17h5v2h-5z"/><path fill="#61C66C" opacity=".3" d="M597 17h5v2h-5z"/></g><g transform="translate(620 5)" fill-rule="nonzero"><path d="M2.238 20.234c.101.012.281.028.532.043 4.215.26 9.313-.45 14.23-2.963 4.355-2.225 7.951-5.645 10.513-10.432l-1.836-.983c-2.356 4.402-5.639 7.523-9.625 9.56-4.534 2.316-9.279 2.978-13.153 2.74a9.384 9.384 0 01-.426-.034l-.235 2.07z" fill="#FFF"/><path d="M2.748 1.96a1 1 0 00-2 0v23.022a1 1 0 001 1h26.974a1 1 0 000-2H2.748V1.961z" fill="#3B537D"/><ellipse fill="#3B537D" cx="26.42" cy="5.929" rx="3.448" ry="3.433"/></g><g stroke="#57BC62"><g transform="translate(597 48)" fill-rule="nonzero" stroke-width=".778" fill="#57BC62"><circle cx="5.5" cy="2.337" r="1.81"/><circle cx="8.667" cy="6.823" r="1.81"/><circle cx="2.333" cy="6.823" r="1.81"/></g><g stroke-width="2"><path d="M610.678 58.297l.264 1.341c.317 1.607-.704 3.423-2.25 3.997l-5.186 1.925.009-2.272c.006-1.638 1.358-3.394 2.954-3.833h0l4.21-1.158zM601.494 65.56l-5.186-1.925c-1.546-.574-2.567-2.39-2.25-3.997l.264-1.34 4.21 1.157c1.595.44 2.947 2.195 2.953 3.833h0l.01 2.272z"/></g></g><g stroke="#BEC5D2"><g transform="translate(620 48)" fill-rule="nonzero" stroke-width=".778" fill="#BEC5D2"><circle cx="5.5" cy="2.337" r="1.81"/><circle cx="8.667" cy="6.823" r="1.81"/><circle cx="2.333" cy="6.823" r="1.81"/></g><g stroke-width="2"><path d="M633.678 58.297l.264 1.341c.317 1.607-.704 3.423-2.25 3.997l-5.186 1.925.009-2.272c.006-1.638 1.358-3.394 2.954-3.833h0l4.21-1.158zM624.494 65.56l-5.186-1.925c-1.546-.574-2.567-2.39-2.25-3.997l.264-1.34 4.21 1.157c1.595.44 2.947 2.195 2.953 3.833h0l.01 2.272z"/></g></g><g fill-rule="nonzero" fill="#57BC62"><path d="M647.569 54.216V67.75a1 1 0 102 0V54.216a1 1 0 00-2 0z"/><path d="M644.791 60.473l3.068 2.088a1 1 0 001.125-1.653l-3.067-2.089a1 1 0 10-1.126 1.654z"/><path d="M651.218 56.806l-2.803 2.244a1 1 0 101.25 1.562l2.803-2.244a1 1 0 00-1.25-1.562z"/><path d="M648.015 48.383l.46-.235.458.238c.3.155.803.446 1.443.866 1.06.697 2.12 1.511 3.113 2.439 1.307 1.22 2.399 2.549 3.2 3.983 3.23 5.777.49 10.159-8.218 10.159-8.66 0-11.322-4.341-8.229-10.164.796-1.498 1.942-2.883 3.346-4.154a23.174 23.174 0 013.025-2.307c.622-.4 1.11-.677 1.402-.825zm-.335 2.507a21.153 21.153 0 00-2.757 2.105c-1.241 1.127-2.241 2.338-2.916 3.61-2.377 4.485-.699 7.228 6.444 7.228 7.191 0 8.919-2.767 6.454-7.184-.69-1.239-1.65-2.41-2.813-3.499a21.323 21.323 0 00-3.645-2.731 19.82 19.82 0 00-.767.47z"/></g><g fill-rule="nonzero" fill="#BEC5D2"><path d="M670.569 54.216V67.75a1 1 0 102 0V54.216a1 1 0 00-2 0z"/><path d="M667.791 60.473l3.068 2.088a1 1 0 001.125-1.653l-3.067-2.089a1 1 0 10-1.126 1.654z"/><path d="M674.218 56.806l-2.803 2.244a1 1 0 101.25 1.562l2.803-2.244a1 1 0 00-1.25-1.562z"/><path d="M671.015 48.383l.46-.235.458.238c.3.155.803.446 1.443.866 1.06.697 2.12 1.511 3.113 2.439 1.307 1.22 2.399 2.549 3.2 3.983 3.23 5.777.49 10.159-8.218 10.159-8.66 0-11.322-4.341-8.229-10.164.796-1.498 1.942-2.883 3.346-4.154a23.174 23.174 0 013.025-2.307c.622-.4 1.11-.677 1.402-.825zm-.317 2.507a21.194 21.194 0 00-2.763 2.105c-1.244 1.127-2.246 2.338-2.922 3.61-2.382 4.485-.7 7.228 6.458 7.228 7.207 0 8.938-2.767 6.468-7.184-.692-1.239-1.654-2.41-2.82-3.499a21.362 21.362 0 00-3.652-2.731 19.87 19.87 0 00-.769.47z"/></g><g transform="translate(655 5)" fill-rule="nonzero" fill="#FFF"><rect x=".308" y="12.931" width="28" height="4" rx="2"/><rect transform="rotate(90 14.308 14.931)" x=".308" y="12.931" width="28" height="4" rx="2"/></g><g fill-rule="nonzero" fill="#C4C7CE"><g transform="translate(690 15)"><circle cx="3.5" cy="3.5" r="3.5"/><circle cx="17.116" cy="3.5" r="3.5"/><circle cx="30.732" cy="3.5" r="3.5"/></g></g><g transform="translate(0 63)" fill-rule="nonzero"><circle fill="#616A77" cx="12" cy="12" r="12"/><path d="M12.997 13.914c-1.103.072-1.94-.77-1.869-1.87l.433-6.77c.07-1.105.262-1.112.426-.025l1 6.635 4.773 1.131c1.073.254 1.044.52-.054.591l-4.71.308z" fill="#FFF"/></g><path d="M32.746 73.572a1 1 0 10-1.492 1.332l3.36 3.762a1 1 0 001.472.022l6.64-7a1 1 0 10-1.452-1.376l-5.891 6.212-2.637-2.952z" fill="#57BC62" fill-rule="nonzero"/><g fill-rule="nonzero"><path fill="#F25022" d="M550 42h16v16h-16z"/><path fill="#7FBA00" d="M568 42h16v16h-16z"/><path fill="#00A4EF" d="M550 60h16v16h-16z"/><path fill="#FFB900" d="M568 60h16v16h-16z"/></g><g fill-rule="nonzero"><path d="M708.993 70c.102 0 .201-.003.302-.008.064.006.13.008.197.008 2.34 0 3.843-1.054 5.297-2.075 1.003-.704 1.95-1.368 3.065-1.553a9.951 9.951 0 011.61-.134c.943 0 1.687.144 2.23.25.33.064.615.119.832.119.226 0 .47-.049.578-.41.092-.314.159-.616.224-.91.166-.754.284-1.219.602-1.267 3.713-.57 4.776-1.347 5.012-1.898a.698.698 0 00.057-.235.415.415 0 00-.35-.433c-5.707-.934-8.266-6.727-8.373-6.973a.213.213 0 00-.009-.02c-.35-.703-.417-1.313-.204-1.813.392-.917 1.67-1.32 2.515-1.586.207-.065.403-.126.558-.188 1.688-.662 1.828-1.342 1.761-1.688-.113-.59-.907-1.003-1.55-1.003-.176 0-.331.032-.462.092-.76.353-1.443.532-2.034.532-.815 0-1.171-.34-1.215-.385.021-.383.047-.784.073-1.198.17-2.679.381-6.01-.473-7.91-2.559-5.696-7.985-6.14-9.587-6.14l-.702-.007h-.095c-1.605 0-7.044.444-9.604 6.144-.854 1.901-.642 5.234-.472 7.912l.007.117c.023.372.046.734.065 1.082-.04.041-.368.354-1.107.382h-.001c-.563-.021-1.208-.2-1.917-.529a1.447 1.447 0 00-.595-.117c-.24 0-.483.047-.685.13l-.013.005c-.573.202-.948.6-.956 1.018-.008.393.294.983 1.774 1.563.154.06.35.122.558.188.847.266 2.124.67 2.515 1.586.214.5.146 1.11-.204 1.813l-.01.02c-.105.246-2.662 6.038-8.373 6.972a.417.417 0 00-.35.433c.005.08.025.16.059.237.236.547 1.297 1.323 5.011 1.893.304.046.422.439.603 1.262.066.3.132.594.224.904.079.268.247.394.531.394h.046c.197 0 .477-.035.831-.104a11.198 11.198 0 012.231-.234 9.97 9.97 0 011.61.134c1.115.185 2.061.848 3.063 1.55 1.455 1.024 2.958 2.078 5.3 2.078" fill="#FFF"/><path d="M708.433 33.167c-1.52 0-6.755.406-9.221 5.898-.813 1.808-.605 5.084-.438 7.716.027.418.052.823.073 1.21l.01.165-.113.124c-.044.05-.467.488-1.406.524h-.031c-.62-.023-1.32-.214-2.08-.568a1.019 1.019 0 00-.418-.077c-.18 0-.37.033-.528.1l-.024.009c-.398.138-.68.4-.684.636-.002.134.099.615 1.51 1.169.139.054.32.112.531.178.919.29 2.306.726 2.774 1.818.263.617.192 1.344-.214 2.16-.167.387-2.788 6.253-8.69 7.218a.272.272 0 00.024.095c.1.234.736 1.042 4.692 1.647.62.095.77.784.947 1.586.062.286.128.575.216.874.027.09.032.096.13.096h.047c.175 0 .442-.036.75-.096.562-.11 1.33-.243 2.312-.243.547 0 1.112.048 1.679.141 1.21.2 2.195.892 3.238 1.623 1.4.984 2.847 2 5.055 2 .096 0 .19-.004.285-.008l.025-.001.025.002c.054.004.108.007.164.007 2.209 0 3.656-1.016 5.056-2 1.043-.731 2.028-1.423 3.237-1.623.567-.093 1.132-.14 1.68-.14.981 0 1.75.148 2.31.257.31.06.576.112.752.112.142 0 .145-.008.175-.111.089-.3.155-.596.217-.882.177-.802.33-1.495.947-1.59 3.957-.606 4.592-1.416 4.692-1.649a.277.277 0 00.024-.096c-5.901-.965-8.523-6.83-8.69-7.218-.405-.817-.477-1.543-.213-2.16.466-1.093 1.854-1.53 2.773-1.82a8.64 8.64 0 00.53-.177c1.193-.468 1.56-.939 1.504-1.225-.062-.329-.637-.664-1.139-.664a.679.679 0 00-.284.052c-.815.379-1.56.571-2.211.571-1.025 0-1.483-.473-1.531-.528l-.112-.123.01-.165c.02-.387.047-.79.073-1.208.167-2.632.375-5.906-.438-7.715-2.457-5.472-7.666-5.893-9.204-5.893l-.707-.007h-.09m0-.83h.1l.698.005c1.664 0 7.306.462 9.967 6.387.896 1.994.682 5.38.51 8.1-.021.321-.043.654-.061.976.138.076.39.17.785.17.528 0 1.153-.165 1.856-.493.187-.086.402-.13.64-.13.823 0 1.808.538 1.96 1.34.111.577-.15 1.42-2.018 2.152-.168.067-.37.13-.585.197-.772.244-1.94.612-2.257 1.353-.163.384-.098.878.195 1.467.006.013.013.027.018.041.103.237 2.573 5.829 8.057 6.725.422.07.723.443.7.867a1.118 1.118 0 01-.089.373c-.412.955-2.148 1.656-5.31 2.143-.105.141-.215.643-.283.948-.065.302-.133.612-.23.94-.096.323-.343.708-.98.708-.256 0-.56-.06-.91-.127-.528-.103-1.25-.242-2.152-.242-.5 0-1.02.043-1.542.128-1.02.17-1.887.778-2.89 1.482-1.437 1.01-3.066 2.152-5.54 2.152a2.53 2.53 0 01-.204-.007c-.08.004-.184.007-.295.007-2.475 0-4.103-1.142-5.539-2.151-1.005-.706-1.872-1.314-2.891-1.483a9.565 9.565 0 00-1.542-.128c-.862 0-1.543.108-2.15.226a5.045 5.045 0 01-.912.112h-.047c-.47 0-.801-.247-.933-.694a12.736 12.736 0 01-.23-.93c-.068-.305-.177-.803-.282-.945-3.162-.487-4.898-1.186-5.31-2.138a1.11 1.11 0 01-.09-.375.832.832 0 01.7-.866c5.486-.898 7.955-6.489 8.057-6.726a.459.459 0 01.019-.04c.292-.59.357-1.083.193-1.467-.316-.741-1.483-1.109-2.255-1.352a9.966 9.966 0 01-.586-.198c-1.367-.536-2.053-1.195-2.04-1.958.013-.599.483-1.133 1.23-1.398h.002c.25-.105.549-.161.84-.161.201 0 .497.027.774.155.65.303 1.235.468 1.739.49.334-.015.553-.1.678-.167l-.052-.858-.008-.115c-.173-2.722-.387-6.112.508-8.106 2.663-5.929 8.317-6.39 9.986-6.39" fill="#030303"/></g><g><path stroke="#4840BB" stroke-width="1.5" d="M118.25 64.75v20.5h16V70.306l-5.613-5.556z"/><path fill="#4840BB" fill-rule="nonzero" d="M128 64l7 7h-7z"/><path d="M121.5 73.25h9.243M121.5 76.75h9.243M121.5 80.25h9.243" stroke="#4840BB" stroke-width="1.5"/></g><g fill-rule="nonzero" fill="#4840BB"><path d="M147 66.5h18v12.76h-2.25v4.04L156 79.26h-9V66.5zm1.688 1.595v9.57h7.926l4.449 2.658.034-2.658h2.215v-9.57h-14.625z"/><path d="M151 70.5h8V72h-8zM151 73.5h6V75h-6z"/></g><g fill="#161338"><path d="M194 66.5h-18v12.76h2.25v4.04l6.75-4.04h9V66.5zm-1.688 1.595v9.57h-7.926l-4.449 2.658-.034-2.658h-2.215v-9.57h14.625z"/><path d="M180 70.5h8V72h-8zM180 73.5h6V75h-6z"/></g></g></svg>