<svg width="120" height="120" viewBox="0 0 120 120" fill="none" xmlns="http://www.w3.org/2000/svg"><path d="M60 120c33.137 0 60-26.863 60-60S93.137 0 60 0 0 26.863 0 60s26.863 60 60 60z" fill="#83E4C8"/><path opacity=".2" fill-rule="evenodd" clip-rule="evenodd" d="M32.4 72.383c0 .727.48 1.646 1.095 2.065 0 0 20.664 14.352 27.346 14.352 6.681 0 26.872-13.78 26.872-13.78.6-.402 1.087-1.329 1.087-2.055V46.8H32.4v25.584z" fill="#161338"/><path fill-rule="evenodd" clip-rule="evenodd" d="M57.756 28.523c1.902-1.08 4.99-1.077 6.887 0l35.189 19.983c1.901 1.08 1.87 2.786-.054 3.804L64.696 70.854c-1.93 1.02-5.07 1.017-6.993 0L22.62 52.31c-1.931-1.021-1.95-2.727-.054-3.804l35.19-19.983z" fill="#fff"/><path fill-rule="evenodd" clip-rule="evenodd" d="M58.44 49.467l.72 1.866L37 59.87V80.4h-2V58.496l23.44-9.03z" fill="#4840BB"/><path fill-rule="evenodd" clip-rule="evenodd" d="M63.6 49.2c0 1.325-1.343 2.4-3 2.4s-3-1.075-3-2.4 1.343-2.4 3-2.4 3 1.075 3 2.4z" fill="#4840BB"/><path fill-rule="evenodd" clip-rule="evenodd" d="M31.5 88.8h8.397s.269-15.6-4.064-15.6S31.5 88.8 31.5 88.8z" fill="#fff"/></svg>