<svg width="120" height="120" viewBox="0 0 120 120" fill="none" xmlns="http://www.w3.org/2000/svg"><path d="M60 120c33.137 0 60-26.863 60-60S93.137 0 60 0 0 26.863 0 60s26.863 60 60 60z" fill="#83E4C8"/><path d="M91.21 40.8H28.79a2.39 2.39 0 00-2.39 2.39v33.6a2.39 2.39 0 002.39 2.389h62.42a2.39 2.39 0 002.39-2.39v-33.6a2.39 2.39 0 00-2.39-2.389z" fill="#fff"/><path fill-rule="evenodd" clip-rule="evenodd" d="M28.264 42.256c-1.05-.804-.831-1.456.491-1.456h62.417c1.32 0 1.565.665.536 1.494L64.54 64.165c-2.068 1.665-5.45 1.706-7.56.09l-28.716-22z" fill="#4840BB"/></svg>