<svg width="120" height="120" viewBox="0 0 120 120" fill="none" xmlns="http://www.w3.org/2000/svg"><path d="M60 119.933c33.137 0 60-26.848 60-59.966C120 26.848 93.137 0 60 0S0 26.848 0 59.967c0 33.118 26.863 59.966 60 59.966z" fill="#83E4C8"/><path opacity=".2" d="M93.61 45.575H31.19a2.39 2.39 0 00-2.39 2.389v33.6a2.39 2.39 0 002.39 2.39h62.42a2.39 2.39 0 002.39-2.39v-33.6a2.39 2.39 0 00-2.39-2.39z" fill="#161338"/><path d="M88.81 38.379H26.39A2.39 2.39 0 0024 40.768v33.6a2.39 2.39 0 002.39 2.39h62.42a2.39 2.39 0 002.39-2.39v-33.6a2.39 2.39 0 00-2.39-2.39z" fill="#fff"/><path d="M57.6 64.764c3.976 0 7.2-3.222 7.2-7.196a7.198 7.198 0 00-7.2-7.196 7.198 7.198 0 00-7.2 7.196 7.198 7.198 0 007.2 7.196zM39.6 62.365a3.599 3.599 0 10-3.6-3.598 3.599 3.599 0 003.6 3.598zM75.6 62.365a3.599 3.599 0 10-3.6-3.598 3.599 3.599 0 003.6 3.598z" fill="#4840BB"/></svg>