<svg width="120" height="120" viewBox="0 0 120 120" fill="none" xmlns="http://www.w3.org/2000/svg"><mask id="a" maskUnits="userSpaceOnUse" x="0" y="0" width="120" height="120"><path d="M60 120c33.137 0 60-26.863 60-60S93.137 0 60 0 0 26.863 0 60s26.863 60 60 60z" fill="#fff"/></mask><g mask="url(#a)"><path d="M60 120c33.137 0 60-26.863 60-60S93.137 0 60 0 0 26.863 0 60s26.863 60 60 60z" fill="#83E4C8"/><path d="M-3 49.2a4.2 4.2 0 100-8.4 4.2 4.2 0 000 8.4z" fill="#fff"/></g><path opacity=".2" fill-rule="evenodd" clip-rule="evenodd" d="M76.347 53.735c-4.543-1.347-7.861-5.603-7.861-10.646C68.486 36.965 73.381 32 79.419 32s10.933 4.965 10.933 11.09c0 4.992-3.253 9.214-7.727 10.604 15.435 2.588 13.27 25.14 13.27 25.14-.041 1.312-1.169 2.366-2.478 2.366h-28.59c-1.299 0-2.382-1.06-2.396-2.366 0 0-1.362-22.326 13.916-25.1z" fill="#161338"/><path fill-rule="evenodd" clip-rule="evenodd" d="M39.147 53.735c-4.543-1.347-7.86-5.603-7.86-10.646C31.286 36.965 36.18 32 42.218 32s10.933 4.965 10.933 11.09c0 4.992-3.253 9.214-7.727 10.604 15.435 2.588 13.27 25.14 13.27 25.14-.041 1.312-1.169 2.366-2.478 2.366h-28.59c-1.299 0-2.382-1.06-2.396-2.366 0 0-1.363-22.326 13.916-25.1z" fill="#fff"/><path fill-rule="evenodd" clip-rule="evenodd" d="M58.086 67.62c-2.68-1.263-4.539-4.032-4.539-7.244 0-4.405 3.497-7.976 7.81-7.976 4.312 0 7.809 3.57 7.809 7.976 0 3.178-1.82 5.923-4.455 7.204 6.3 1.434 9.12 7.44 8.46 18.016a1.71 1.71 0 01-1.707 1.604H50.881a1.71 1.71 0 01-1.71-1.665c-.277-10.443 2.695-16.414 8.915-17.914z" fill="#4840BB"/></svg>