<svg width="120" height="120" viewBox="0 0 120 120" fill="none" xmlns="http://www.w3.org/2000/svg"><path d="M60 120c33.137 0 60-26.863 60-60S93.137 0 60 0 0 26.863 0 60s26.863 60 60 60z" fill="#83E4C8"/><path fill-rule="evenodd" clip-rule="evenodd" d="M57.07 29.35c12.987-1.457 23.978 8.798 23.978 21.653a21.792 21.792 0 01-11.959 19.5v16.029c0 1.53-1.226 2.771-2.74 2.771H52.709c-1.514 0-2.74-1.242-2.74-2.771V70.503c-7.927-3.993-13.09-12.764-11.743-22.612 1.323-9.685 9.25-17.465 18.845-18.541zm-4.734 24.095c-.655-1.09.1-2.538 1.43-2.538h11.527c1.33 0 2.084 1.449 1.43 2.538l-.002.003-5.92 9.783v12.775a1.272 1.272 0 11-2.544 0V63.231l-5.921-9.786zm2.978.006l4.215 6.967 4.216-6.967h-8.431z" fill="#fff"/><path opacity=".2" fill-rule="evenodd" clip-rule="evenodd" d="M53.765 50.907c-1.33 0-2.084 1.449-1.429 2.538l5.921 9.786v12.775a1.272 1.272 0 102.545 0V63.231l5.919-9.783.002-.003c.654-1.09-.1-2.538-1.43-2.538H53.765zm5.764 9.511l-4.215-6.967h8.431l-4.216 6.967z" fill="#161338"/><path opacity=".2" d="M58.257 63.23v12.776a1.272 1.272 0 102.544 0V63.231l-.183.303a1.272 1.272 0 01-2.177 0l-.184-.303zM65.05 88.493H53.748l2.807 4.684v.001a2.7 2.7 0 002.319 1.317h1.691a2.708 2.708 0 002.457-1.58l2.028-4.422z" fill="#161338"/><path fill-rule="evenodd" clip-rule="evenodd" d="M49.968 70.503v16.029c0 1.53 1.226 2.771 2.74 2.771H66.35c1.513 0 2.74-1.242 2.74-2.771V70.503H49.968z" fill="#4840BB"/></svg>