<svg width="120" height="120" viewBox="0 0 120 120" fill="none" xmlns="http://www.w3.org/2000/svg"><path d="M60 119.933c33.137 0 60-26.848 60-59.966C120 26.848 93.137 0 60 0S0 26.848 0 59.967c0 33.118 26.863 59.966 60 59.966z" fill="#83E4C8"/><path fill-rule="evenodd" clip-rule="evenodd" d="M35.957 43.589c0-.878.7-1.589 1.603-1.589h35.237c.886 0 1.603.714 1.603 1.589v34.429a7.18 7.18 0 01-7.186 7.182H37.56a1.597 1.597 0 01-1.603-1.589V43.59zM64.41 50.47H42.605a.798.798 0 00-.798.798v3.486c0 .44.357.798.798.798H64.41c.441 0 .798-.357.798-.798v-3.486a.798.798 0 00-.798-.798zM42.605 60.635h16.79c.44 0 .798.358.798.798v3.487c0 .44-.357.798-.798.798h-16.79a.798.798 0 01-.798-.798v-3.487c0-.44.357-.798.798-.798z" fill="#fff"/><path d="M34.362 85.2c-3.734 0-6.762-3.042-6.762-6.776v-5.169c0-.888.703-1.608 1.604-1.608h31.997c.886 0 1.566.728 1.536 1.593 0 0-.385 5.007.82 7.63 1.206 2.624 4.993 4.33 4.993 4.33H34.362z" fill="#4840BB"/><path opacity=".2" d="M64.41 50.47H42.604a.798.798 0 00-.798.799v3.486c0 .44.357.798.798.798H64.41c.44 0 .798-.357.798-.798v-3.486a.798.798 0 00-.798-.798zM59.395 60.635h-16.79a.798.798 0 00-.798.798v3.487c0 .44.357.798.798.798h16.79c.44 0 .798-.358.798-.798v-3.487a.798.798 0 00-.798-.798z" fill="#161338"/><path d="M80.4 60C89.016 60 96 53.016 96 44.4s-6.984-15.6-15.6-15.6-15.6 6.984-15.6 15.6S71.784 60 80.4 60z" fill="#4840BB"/><mask id="a" maskUnits="userSpaceOnUse" x="62" y="26" width="37" height="37"><path d="M98.4 26.4h-36v36h36v-36z" fill="#fff"/></mask><g mask="url(#a)"><path d="M80.4 60C89.016 60 96 53.016 96 44.4s-6.984-15.6-15.6-15.6-15.6 6.984-15.6 15.6S71.784 60 80.4 60z" stroke="#83E4C8" stroke-width="3.2"/></g><path d="M80.4 51.336V40.248" stroke="#fff" stroke-width="3"/><path d="M84.903 43.13l-4.48-4.48-4.526 4.525" stroke="#fff" stroke-width="3" stroke-linecap="round"/></svg>