<svg width="854" height="341" viewBox="0 0 854 341" fill="none" xmlns="http://www.w3.org/2000/svg">
<mask id="mask0" mask-type="alpha" maskUnits="userSpaceOnUse" x="0" y="0" width="854" height="341">
<rect width="854" height="341" fill="url(#paint0_linear)"/>
</mask>
<g mask="url(#mask0)">
<rect x="-1.21826" width="856" height="341" fill="url(#paint1_linear)"/>
<g opacity="0.97">
<path d="M-15.2183 110.614C178.966 110.614 212.827 148.34 358.377 148.34C503.928 148.34 672.696 82.2344 869 82.2344" stroke="url(#paint2_linear)" stroke-opacity="0.18" stroke-width="5"/>
<path d="M-15.2183 98.7809C178.966 98.7809 212.827 136.507 358.377 136.507C503.928 136.507 672.696 70.4014 869 70.4014" stroke="url(#paint3_linear)" stroke-opacity="0.1" stroke-width="5"/>
<path d="M-15.2183 86.9488C178.966 86.9488 212.827 124.675 358.377 124.675C503.928 124.675 672.696 58.5693 869 58.5693" stroke="url(#paint4_linear)" stroke-opacity="0.1" stroke-width="5"/>
<path d="M-15.2183 75.1168C178.966 75.1168 212.827 112.843 358.377 112.843C503.928 112.843 672.696 46.7373 869 46.7373" stroke="url(#paint5_linear)" stroke-opacity="0.1" stroke-width="5"/>
<path d="M-15.2183 159.717C178.966 159.717 212.827 197.443 358.377 197.443C503.928 197.443 672.696 131.338 869 131.338" stroke="url(#paint6_linear)" stroke-opacity="0.32" stroke-width="5"/>
<path d="M-15.2183 147.884C178.966 147.884 212.827 185.61 358.377 185.61C503.928 185.61 672.696 119.505 869 119.505" stroke="url(#paint7_linear)" stroke-opacity="0.32" stroke-width="5"/>
<path d="M-15.2183 136.051C178.966 136.051 212.827 173.777 358.377 173.777C503.928 173.777 672.696 107.672 869 107.672" stroke="url(#paint8_linear)" stroke-opacity="0.32" stroke-width="5"/>
<path d="M-15.2183 124.221C178.966 124.221 212.827 161.947 358.377 161.947C503.928 161.947 672.696 95.8418 869 95.8418" stroke="url(#paint9_linear)" stroke-opacity="0.2" stroke-width="5"/>
<path d="M-15.2183 208.822C178.966 208.822 212.827 246.548 358.377 246.548C503.928 246.548 672.696 180.442 869 180.442" stroke="url(#paint10_linear)" stroke-opacity="0.08" stroke-width="5"/>
<path opacity="0.4" d="M-15.2183 196.988C178.966 196.988 212.827 234.714 358.377 234.714C503.928 234.714 672.696 168.608 869 168.608" stroke="url(#paint11_linear)" stroke-opacity="0.32" stroke-width="5"/>
<path d="M-15.2183 185.155C178.966 185.155 212.827 222.881 358.377 222.881C503.928 222.881 672.696 156.775 869 156.775" stroke="url(#paint12_linear)" stroke-opacity="0.18" stroke-width="5"/>
<path d="M-15.2183 173.325C178.966 173.325 212.827 211.051 358.377 211.051C503.928 211.051 672.696 144.945 869 144.945" stroke="url(#paint13_linear)" stroke-opacity="0.25" stroke-width="5"/>
<path d="M-15.2183 63.8766C178.966 63.8766 212.827 101.602 358.377 101.602C503.928 101.602 672.696 35.4971 869 35.4971" stroke="url(#paint14_linear)" stroke-opacity="0.1" stroke-width="5"/>
<path d="M-15.2183 52.0426C178.966 52.0426 212.827 89.7683 358.377 89.7683C503.928 89.7683 672.696 23.6631 869 23.6631" stroke="url(#paint15_linear)" stroke-opacity="0.07" stroke-width="5"/>
<path d="M-15.2183 40.2125C178.966 40.2125 212.827 77.9383 358.377 77.9383C503.928 77.9383 672.696 11.833 869 11.833" stroke="url(#paint16_linear)" stroke-opacity="0.04" stroke-width="5"/>
<path d="M-15.2183 28.3795C178.966 28.3795 212.827 66.1052 358.377 66.1052C503.928 66.1052 672.696 0 869 0" stroke="url(#paint17_linear)" stroke-opacity="0.04" stroke-width="5"/>
<path d="M-15.2183 304.663C178.966 304.663 212.827 342.388 358.377 342.388C503.928 342.388 672.696 276.283 869 276.283" stroke="url(#paint18_linear)" stroke-opacity="0.15" stroke-width="5"/>
<path d="M-15.2183 292.83C178.966 292.83 212.827 330.555 358.377 330.555C503.928 330.555 672.696 264.45 869 264.45" stroke="url(#paint19_linear)" stroke-opacity="0.1" stroke-width="5"/>
<path d="M-15.2183 280.997C178.966 280.997 212.827 318.722 358.377 318.722C503.928 318.722 672.696 252.617 869 252.617" stroke="url(#paint20_linear)" stroke-opacity="0.1" stroke-width="5"/>
<path d="M-15.2183 269.165C178.966 269.165 212.827 306.89 358.377 306.89C503.928 306.89 672.696 240.785 869 240.785" stroke="url(#paint21_linear)" stroke-opacity="0.05" stroke-width="5"/>
<path d="M-15.2183 353.766C178.966 353.766 212.827 391.492 358.377 391.492C503.928 391.492 672.696 325.387 869 325.387" stroke="url(#paint22_linear)" stroke-opacity="0.1" stroke-width="5"/>
<path d="M-15.2183 341.933C178.966 341.933 212.827 379.659 358.377 379.659C503.928 379.659 672.696 313.554 869 313.554" stroke="url(#paint23_linear)" stroke-opacity="0.2" stroke-width="5"/>
<path d="M-15.2183 330.1C178.966 330.1 212.827 367.826 358.377 367.826C503.928 367.826 672.696 301.721 869 301.721" stroke="url(#paint24_linear)" stroke-opacity="0.2" stroke-width="5"/>
<path d="M-15.2183 318.268C178.966 318.268 212.827 355.994 358.377 355.994C503.928 355.994 672.696 289.889 869 289.889" stroke="url(#paint25_linear)" stroke-opacity="0.2" stroke-width="5"/>
<path d="M-15.2183 367.372C178.966 367.372 212.827 405.097 358.377 405.097C503.928 405.097 672.696 338.992 869 338.992" stroke="url(#paint26_linear)" stroke-opacity="0.05" stroke-width="5"/>
<path d="M-15.2183 257.925C178.966 257.925 212.827 295.651 358.377 295.651C503.928 295.651 672.696 229.546 869 229.546" stroke="url(#paint27_linear)" stroke-opacity="0.05" stroke-width="5"/>
<path d="M-15.2183 246.091C178.966 246.091 212.827 283.817 358.377 283.817C503.928 283.817 672.696 217.712 869 217.712" stroke="url(#paint28_linear)" stroke-opacity="0.05" stroke-width="5"/>
<path d="M-15.2183 234.258C178.966 234.258 212.827 271.984 358.377 271.984C503.928 271.984 672.696 205.879 869 205.879" stroke="url(#paint29_linear)" stroke-opacity="0.05" stroke-width="5"/>
<path d="M-15.2183 222.428C178.966 222.428 212.827 260.154 358.377 260.154C503.928 260.154 672.696 194.049 869 194.049" stroke="url(#paint30_linear)" stroke-opacity="0.05" stroke-width="5"/>
</g>
</g>
<defs>
<linearGradient id="paint0_linear" x1="816.601" y1="397.836" x2="787.361" y2="-178.873" gradientUnits="userSpaceOnUse">
<stop stop-color="#75CCCF"/>
<stop offset="0.682987" stop-color="#534DCC"/>
<stop offset="0.919639" stop-color="#75CBCF"/>
</linearGradient>
<linearGradient id="paint1_linear" x1="817.295" y1="397.836" x2="788.123" y2="-178.88" gradientUnits="userSpaceOnUse">
<stop stop-color="#75CCCF"/>
<stop offset="0.682987" stop-color="#534DCC"/>
<stop offset="0.919639" stop-color="#75CBCF"/>
</linearGradient>
<linearGradient id="paint2_linear" x1="426.891" y1="82.2344" x2="426.891" y2="148.34" gradientUnits="userSpaceOnUse">
<stop stop-color="#3D3F96"/>
<stop offset="1" stop-color="#97D1C2"/>
</linearGradient>
<linearGradient id="paint3_linear" x1="426.891" y1="70.4014" x2="426.891" y2="136.507" gradientUnits="userSpaceOnUse">
<stop stop-color="#3D3F96"/>
<stop offset="1" stop-color="#97D1C2"/>
</linearGradient>
<linearGradient id="paint4_linear" x1="426.891" y1="58.5693" x2="426.891" y2="124.675" gradientUnits="userSpaceOnUse">
<stop stop-color="#3D3F96"/>
<stop offset="1" stop-color="#97D1C2"/>
</linearGradient>
<linearGradient id="paint5_linear" x1="426.891" y1="46.7373" x2="426.891" y2="112.843" gradientUnits="userSpaceOnUse">
<stop stop-color="#3D3F96"/>
<stop offset="1" stop-color="#97D1C2"/>
</linearGradient>
<linearGradient id="paint6_linear" x1="426.891" y1="131.338" x2="426.891" y2="197.443" gradientUnits="userSpaceOnUse">
<stop stop-color="#3D3F96"/>
<stop offset="1" stop-color="#97D1C2"/>
</linearGradient>
<linearGradient id="paint7_linear" x1="426.891" y1="119.505" x2="426.891" y2="185.61" gradientUnits="userSpaceOnUse">
<stop stop-color="#3D3F96"/>
<stop offset="1" stop-color="#97D1C2"/>
</linearGradient>
<linearGradient id="paint8_linear" x1="426.891" y1="107.672" x2="426.891" y2="173.777" gradientUnits="userSpaceOnUse">
<stop stop-color="#3D3F96"/>
<stop offset="1" stop-color="#97D1C2"/>
</linearGradient>
<linearGradient id="paint9_linear" x1="426.891" y1="95.8418" x2="426.891" y2="161.947" gradientUnits="userSpaceOnUse">
<stop stop-color="#3D3F96"/>
<stop offset="1" stop-color="#97D1C2"/>
</linearGradient>
<linearGradient id="paint10_linear" x1="426.891" y1="180.442" x2="426.891" y2="246.548" gradientUnits="userSpaceOnUse">
<stop stop-color="#3D3F96"/>
<stop offset="1" stop-color="#97D1C2"/>
</linearGradient>
<linearGradient id="paint11_linear" x1="426.891" y1="168.608" x2="426.891" y2="234.714" gradientUnits="userSpaceOnUse">
<stop stop-color="#3D3F96"/>
<stop offset="1" stop-color="#C1E1D9"/>
</linearGradient>
<linearGradient id="paint12_linear" x1="426.891" y1="156.775" x2="426.891" y2="222.881" gradientUnits="userSpaceOnUse">
<stop stop-color="#3D3F96"/>
<stop offset="1" stop-color="#97D1C2"/>
</linearGradient>
<linearGradient id="paint13_linear" x1="426.891" y1="144.945" x2="426.891" y2="211.051" gradientUnits="userSpaceOnUse">
<stop stop-color="#3D3F96"/>
<stop offset="1" stop-color="#97D1C2"/>
</linearGradient>
<linearGradient id="paint14_linear" x1="426.891" y1="35.4971" x2="426.891" y2="101.602" gradientUnits="userSpaceOnUse">
<stop stop-color="#3D3F96"/>
<stop offset="1" stop-color="#97D1C2"/>
</linearGradient>
<linearGradient id="paint15_linear" x1="426.891" y1="23.6631" x2="426.891" y2="89.7683" gradientUnits="userSpaceOnUse">
<stop stop-color="#3D3F96"/>
<stop offset="1" stop-color="#97D1C2"/>
</linearGradient>
<linearGradient id="paint16_linear" x1="426.891" y1="11.833" x2="426.891" y2="77.9383" gradientUnits="userSpaceOnUse">
<stop stop-color="#3D3F96"/>
<stop offset="1" stop-color="#97D1C2"/>
</linearGradient>
<linearGradient id="paint17_linear" x1="426.891" y1="0" x2="426.891" y2="66.1052" gradientUnits="userSpaceOnUse">
<stop stop-color="#3D3F96"/>
<stop offset="1" stop-color="#97D1C2"/>
</linearGradient>
<linearGradient id="paint18_linear" x1="426.891" y1="276.283" x2="426.891" y2="342.388" gradientUnits="userSpaceOnUse">
<stop stop-color="#3D3F96"/>
<stop offset="0.703125" stop-color="#97D1C2"/>
<stop offset="1" stop-color="white"/>
</linearGradient>
<linearGradient id="paint19_linear" x1="426.891" y1="264.45" x2="426.891" y2="330.555" gradientUnits="userSpaceOnUse">
<stop stop-color="#3D3F96"/>
<stop offset="1" stop-color="#97D1C2"/>
</linearGradient>
<linearGradient id="paint20_linear" x1="426.891" y1="252.617" x2="426.891" y2="318.722" gradientUnits="userSpaceOnUse">
<stop stop-color="#3D3F96"/>
<stop offset="1" stop-color="#97D1C2"/>
</linearGradient>
<linearGradient id="paint21_linear" x1="426.891" y1="240.785" x2="426.891" y2="306.89" gradientUnits="userSpaceOnUse">
<stop stop-color="#3D3F96"/>
<stop offset="1" stop-color="#97D1C2"/>
</linearGradient>
<linearGradient id="paint22_linear" x1="426.891" y1="325.387" x2="426.891" y2="391.492" gradientUnits="userSpaceOnUse">
<stop stop-color="#3D3F96"/>
<stop offset="1" stop-color="#97D1C2"/>
</linearGradient>
<linearGradient id="paint23_linear" x1="426.891" y1="313.554" x2="426.891" y2="379.659" gradientUnits="userSpaceOnUse">
<stop stop-color="#3D3F96"/>
<stop offset="1" stop-color="#97D1C2"/>
</linearGradient>
<linearGradient id="paint24_linear" x1="426.891" y1="301.721" x2="426.891" y2="367.826" gradientUnits="userSpaceOnUse">
<stop stop-color="#3D3F96"/>
<stop offset="0.692708" stop-color="#97D1C2"/>
<stop offset="1" stop-color="#EAFAF6"/>
</linearGradient>
<linearGradient id="paint25_linear" x1="426.891" y1="289.889" x2="426.891" y2="355.994" gradientUnits="userSpaceOnUse">
<stop stop-color="#3D3F96"/>
<stop offset="0.765625" stop-color="#97D1C2"/>
<stop offset="1" stop-color="white"/>
</linearGradient>
<linearGradient id="paint26_linear" x1="426.891" y1="338.992" x2="426.891" y2="405.097" gradientUnits="userSpaceOnUse">
<stop stop-color="#3D3F96"/>
<stop offset="1" stop-color="#97D1C2"/>
</linearGradient>
<linearGradient id="paint27_linear" x1="426.891" y1="229.546" x2="426.891" y2="295.651" gradientUnits="userSpaceOnUse">
<stop stop-color="#3D3F96"/>
<stop offset="1" stop-color="#97D1C2"/>
</linearGradient>
<linearGradient id="paint28_linear" x1="426.891" y1="217.712" x2="426.891" y2="283.817" gradientUnits="userSpaceOnUse">
<stop stop-color="#3D3F96"/>
<stop offset="1" stop-color="#EEFCF8"/>
</linearGradient>
<linearGradient id="paint29_linear" x1="426.891" y1="205.879" x2="426.891" y2="271.984" gradientUnits="userSpaceOnUse">
<stop stop-color="#3D3F96"/>
<stop offset="1" stop-color="#DFF7F0"/>
</linearGradient>
<linearGradient id="paint30_linear" x1="426.891" y1="194.049" x2="426.891" y2="260.154" gradientUnits="userSpaceOnUse">
<stop stop-color="#3D3F96"/>
<stop offset="1" stop-color="#C1E9DE"/>
</linearGradient>
</defs>
</svg>
