<svg width="120" height="120" viewBox="0 0 120 120" fill="none" xmlns="http://www.w3.org/2000/svg"><path d="M60 120c33.137 0 60-26.863 60-60S93.137 0 60 0 0 26.863 0 60s26.863 60 60 60z" fill="#83E4C8"/><path fill-rule="evenodd" clip-rule="evenodd" d="M41.74 23.348H52.26c4.69 0 8.493 3.566 8.493 7.963v9.86" fill="#4840BB"/><path opacity=".2" fill-rule="evenodd" clip-rule="evenodd" d="M58.5 90.692h-6.663c-5.104 0-9.549-3.264-10.77-7.91l-7.786-29.59c-1.36-6.527 3.971-12.596 11.064-12.596H58.5v50.096z" fill="#161338"/><path fill-rule="evenodd" clip-rule="evenodd" d="M69.991 90.692H58.425V40.596h18.734c7.093 0 12.424 6.069 11.064 12.596l-7.437 29.493c-1.183 4.693-5.651 8.007-10.795 8.007zm.275-25.28l1.095-1.026c2.036-1.91 5.337-1.91 7.374 0a1.388 1.388 0 010 2.053c-2.037 1.91-5.338 1.91-7.374 0l-1.096-1.026zm-5.685-7.28c0 1.251.509 2.502 1.527 3.456l1.095 1.027 1.095-1.027c2.037-1.909 2.037-5.004 0-6.912l-1.095-1.027-1.095 1.027c-1.018.954-1.527 2.205-1.527 3.456zm2.622 19.045l-1.095-1.027c-2.037-1.91-2.037-5.004 0-6.913l1.095-1.027 1.095 1.027c2.036 1.91 2.036 5.004 0 6.913l-1.095 1.027z" fill="#fff"/></svg>