<svg width="120" height="120" viewBox="0 0 120 120" fill="none" xmlns="http://www.w3.org/2000/svg"><path d="M120 60c0-33.137-26.863-60-60-60S0 26.863 0 60s26.863 60 60 60 60-26.863 60-60z" fill="#83E4C8"/><path d="M30 53h60v31a4 4 0 01-4 4H34a4 4 0 01-4-4V53z" fill="#fff"/><path opacity=".2" d="M30 38a4 4 0 014-4h52a4 4 0 014 4v15H30V38z" fill="#161338"/><path d="M48.8 28h-7.6a1.2 1.2 0 00-1.2 1.2v11.6a1.2 1.2 0 001.2 1.2h7.6a1.2 1.2 0 001.2-1.2V29.2a1.2 1.2 0 00-1.2-1.2zM78.8 28h-7.6a1.2 1.2 0 00-1.2 1.2v11.6a1.2 1.2 0 001.2 1.2h7.6a1.2 1.2 0 001.2-1.2V29.2a1.2 1.2 0 00-1.2-1.2z" fill="#4840BB"/></svg>