<svg width="120" height="120" viewBox="0 0 120 120" fill="none" xmlns="http://www.w3.org/2000/svg"><path d="M60 120c33.137 0 60-26.863 60-60S93.137 0 60 0 0 26.863 0 60s26.863 60 60 60z" fill="#83E4C8"/><mask id="a" maskUnits="userSpaceOnUse" x="0" y="0" width="120" height="120"><path d="M60 120c33.137 0 60-26.863 60-60S93.137 0 60 0 0 26.863 0 60s26.863 60 60 60z" fill="#fff"/></mask><g mask="url(#a)"><path d="M-111.6-85.222C-52.29-60.92-46.286-12.748-17.983 5.693c27.975 18.227 49.751 28.7 54.26 30.936 4.694 2.326 10.24 2.844 4.694-6.72-7.04-11.894-26.127-28.579-27.096-40.59-.967-12.009 9.047-17.433 17.431-13.723 7.11 3.145 19.618 8.583 29.079 12.948.928 4.726 16.785 49.16 22.614 60.754 4.559 9.065 9.226 5.435 10.125 5.063C95.034 42.878 85.362-6.613 83-16.892c-.248-1.076-8.82-2.81-9.467-3.608l-14.64-14.482s14.95 6.212 22.614 9.05C96.789-13.348 112.177.404 119.082.657c4.869.18 7.098-.055-.05-8.739-12.352-15.01-42.007-39.567-52.247-42.67 6.827-1.292 34.801 8.515 40.321 6.72 3.207-1.04 5.332-3.175 4.363-4.477-.969-1.303-38.33-16.197-46.818-18.53-8.487-2.335-75.783-2.037-115.465-36.162" fill="#B49073"/></g><mask id="b" maskUnits="userSpaceOnUse" x="0" y="0" width="120" height="120"><path d="M60 120c33.137 0 60-26.863 60-60S93.137 0 60 0 0 26.863 0 60s26.863 60 60 60z" fill="#fff"/></mask><g mask="url(#b)"><path fill-rule="evenodd" clip-rule="evenodd" d="M60.6 84c-9.882 0-18.999 2.286-26.327 6.143L21.37 82.434v18.542c-2.925 4.103-4.57 8.729-4.57 13.624 0 16.9 19.61 30.6 43.8 30.6 24.19 0 43.8-13.7 43.8-30.6 0-16.9-19.61-30.6-43.8-30.6zM45.568 94.888c10.636-4.35 19.728-4.35 30.364 0a1.5 1.5 0 101.136-2.776c-11.364-4.65-21.272-4.65-32.636 0a1.5 1.5 0 101.136 2.776z" fill="#4840BB"/></g><path fill-rule="evenodd" clip-rule="evenodd" d="M79.2 48.6c0 10.273-8.328 18.6-18.6 18.6-10.273 0-18.6-8.328-18.6-18.6C42 38.327 50.328 30 60.6 30c10.273 0 18.6 8.328 18.6 18.6zm-15.727-7.927a1.5 1.5 0 00-3 0v2.742c-.748.036-1.703.14-2.68.407-1.09.299-2.309.83-3.27 1.798-.997 1.008-1.616 2.39-1.616 4.161 0 1.77.619 3.154 1.618 4.16.96.969 2.18 1.498 3.27 1.796.975.266 1.93.369 2.678.404v2.748a1.5 1.5 0 103 0v-4.262a1.5 1.5 0 00-1.639-1.494h-.007a10.824 10.824 0 01-.995.019c-.638-.017-1.455-.093-2.247-.31-.801-.218-1.473-.552-1.93-1.013-.42-.423-.748-1.037-.748-2.048 0-1.01.328-1.625.748-2.049.458-.462 1.13-.797 1.931-1.017.792-.217 1.61-.293 2.248-.312a10.865 10.865 0 01.995.018h.004l.14-1.486a241.248 241.248 0 00-.139 1.486h.002a1.5 1.5 0 001.637-1.493v-4.255z" fill="#fff"/><path opacity=".2" fill-rule="evenodd" clip-rule="evenodd" d="M61.973 39.173a1.5 1.5 0 011.5 1.5v4.255a1.5 1.5 0 01-1.637 1.493h-.001.001-.007a3.794 3.794 0 00-.243-.014 10.865 10.865 0 00-.752-.004c-.638.019-1.456.095-2.248.312-.8.22-1.473.555-1.931 1.017-.42.424-.748 1.039-.748 2.05 0 1.01.328 1.624.747 2.047.458.461 1.13.795 1.931 1.014.792.216 1.61.292 2.248.31a10.824 10.824 0 00.994-.02h.008a1.5 1.5 0 011.638 1.494v4.262a1.5 1.5 0 11-3 0v-2.748a12.537 12.537 0 01-2.678-.404c-1.09-.297-2.31-.827-3.27-1.796-1-1.007-1.618-2.39-1.618-4.16s.619-3.153 1.617-4.16c.96-.97 2.18-1.5 3.27-1.8a12.544 12.544 0 012.679-.406v-2.742a1.5 1.5 0 011.5-1.5zm0 5.755l-.14 1.493h.001l.139-1.493z" fill="#161338"/></svg>