<svg width="120" height="120" viewBox="0 0 120 120" fill="none" xmlns="http://www.w3.org/2000/svg"><path d="M60 120C26.863 120 0 93.137 0 60S26.863 0 60 0s60 26.863 60 60-26.863 60-60 60z" fill="#83E4C8"/><mask id="a" maskUnits="userSpaceOnUse" x="0" y="0" width="120" height="120"><path d="M60 120C26.863 120 0 93.137 0 60S26.863 0 60 0s60 26.863 60 60-26.863 60-60 60z" fill="#fff"/></mask><g mask="url(#a)"><path opacity=".2" d="M73.708 25.68l-9.702 17.012L56.4 38.44l9.797-17.67 7.51 4.91zM54.5 104.5s7.443 26.61 10.511 40.751c4.571 21.069 12.004 63.072 12.004 63.072l-13.296 5.139-26.84-76.835s-10.344 21.738-17.748 31.786c-7.404 10.049-36.377 30.472-36.377 30.472l-10.739-11.564s9.743-7.282 15.734-14.806C-7.723 166.828.847 158.077.847 158.077L37 105.5l17.5-1z" fill="#161338"/><path fill-rule="evenodd" clip-rule="evenodd" d="M68.47 34.866l-4.464 7.826-2.325-1.3-.17 19.002-8.573-10.332 1.68 25.353 6.563 4.592s13.68 9.692 13.68-5.365c0-12.266-4.664-32.645-6.392-39.776z" fill="#B49073"/><path d="M67.35 20.77s3.116 11.43-4.988 15.322c-8.103 3.893-9.356 1.948-11.856 6.19-2.5 4.242-3.56 7.333-3.56 7.333l-10.161-6.042 6.649-14.438" fill="#B49073"/><path d="M73.438 13.865s-10.07 19.597-25.274 19.597c-15.205 0-6.701-17.27-6.701-17.27S52.52 8.615 64.338 10.77c11.818 2.154 9.1 3.095 9.1 3.095z" fill="#000"/><path d="M54.907 104.368l-2.884-54.753 3.086 2.025s4.374 40.151 6.876 56.626c1.005 6.619 3.646 12.655 3.646 12.655l-7.317 1.206c-2.02-7.72-3.913-14.679-4.756-17.759h1.35z" fill="#4840BB"/><path d="M52.684 49.45l-16.72-7.912-13.026 64.616 32.308-1.751-2.562-54.953z" fill="#fff"/><path d="M7.174 92.949c5.738-13.74 12.035-33.524 17.024-43.192 2.77-5.366 10.2-9.372 10.2-9.372l11.617 14.43s-.663 19.07-2.694 28.839C40.356 97.92 31.03 126.923 31.03 126.923s-14.497-6.424-21.831-9.157C4.99 116.197-3.6 114.017-3.6 114.017s5.129-7.553 10.774-21.068z" fill="#4840BB"/><path d="M41.69 64.615l5.046 22.312s37.356 18.818 37.356 21.828c0 3.01-4.308 1.755-4.308 1.755s-27.847-7.866-35.104-11.84c-7.257-3.974-10.4-6.749-10.4-6.749s-5.572-8.42-5.572-26.731" fill="#B49073"/></g></svg>