<svg width="120" height="120" viewBox="0 0 120 120" fill="none" xmlns="http://www.w3.org/2000/svg"><path d="M60 120c33.137 0 60-26.863 60-60S93.137 0 60 0 0 26.863 0 60s26.863 60 60 60z" fill="#83E4C8"/><path fill-rule="evenodd" clip-rule="evenodd" d="M90.81 39H28.39A2.39 2.39 0 0026 41.39v37.2a2.39 2.39 0 002.39 2.389h62.42a2.39 2.39 0 002.39-2.39v-37.2A2.39 2.39 0 0090.81 39zM45.2 70.2H32v6h13.2v-6zm3.6 0H62v6H48.8v-6z" fill="#fff"/><path d="M93.2 47.4H26V57h67.2v-9.6z" fill="#4840BB"/><path opacity=".2" d="M45.2 70.2H32v6h13.2v-6z" fill="#161338"/></svg>