<svg width="120" height="120" viewBox="0 0 120 120" fill="none" xmlns="http://www.w3.org/2000/svg"><path d="M60 119.933c33.137 0 60-26.848 60-59.966C120 26.848 93.137 0 60 0S0 26.848 0 59.967c0 33.118 26.863 59.966 60 59.966z" fill="#83E4C8"/><path fill-rule="evenodd" clip-rule="evenodd" d="M35.329 30.317c0-1.28 1.02-2.317 2.28-2.317H87.72c1.26 0 2.28 1.024 2.28 2.317v49.306C90 85.353 85.41 90 79.749 90h-42.14c-1.26 0-2.28-1.024-2.28-2.317V30.317zM76.33 40.48h-31.89c-.629 0-1.14.51-1.14 1.14v4.527c0 .63.511 1.14 1.14 1.14h31.89c.63 0 1.14-.51 1.14-1.14V41.62c0-.63-.51-1.14-1.14-1.14zm-31.89 13.615h23.917c.63 0 1.14.51 1.14 1.14v4.527c0 .63-.51 1.14-1.14 1.14H44.442c-.63 0-1.14-.51-1.14-1.14v-4.527c0-.63.51-1.14 1.14-1.14z" fill="#fff"/><path fill-rule="evenodd" clip-rule="evenodd" d="M30.722 90C25.352 90 21 85.512 21 80v-7.667C21 71.045 22.018 70 23.289 70h46.383c1.264 0 2.234 1.036 2.19 2.35 0 0-.557 7.39 1.188 11.26 1.745 3.872 7.227 6.39 7.227 6.39H30.722z" fill="#4840BB"/><path opacity=".2" d="M76.331 40.48h-31.89c-.629 0-1.14.51-1.14 1.14v4.527c0 .63.511 1.14 1.14 1.14h31.89c.63 0 1.14-.51 1.14-1.14V41.62c0-.63-.51-1.14-1.14-1.14zM68.358 54.095H44.442c-.63 0-1.14.51-1.14 1.14v4.527c0 .63.51 1.14 1.14 1.14h23.916c.63 0 1.14-.51 1.14-1.14v-4.527c0-.63-.51-1.14-1.14-1.14z" fill="#161338"/></svg>