<svg width="120" height="120" viewBox="0 0 120 120" fill="none" xmlns="http://www.w3.org/2000/svg"><path d="M120 60c0-33.137-26.863-60-60-60S0 26.863 0 60s26.863 60 60 60 60-26.863 60-60z" fill="#83E4C8"/><path d="M40.8 50.4h-7.2v26.4h7.2V50.4zM55.2 50.4H48v26.4h7.2V50.4zM72 50.4h-7.2v26.4H72V50.4zM86.4 50.4h-7.2v26.4h7.2V50.4z" fill="#fff"/><path d="M90.96 76.8H29.04a1.44 1.44 0 00-1.44 1.44v7.92c0 .795.645 1.44 1.44 1.44h61.92a1.44 1.44 0 001.44-1.44v-7.92a1.44 1.44 0 00-1.44-1.44z" fill="#4840BB"/><path fill-rule="evenodd" clip-rule="evenodd" d="M59.082 26.66c.556-.352 1.456-.345 2.005.012l31.428 20.402c2.332 1.513 1.96 2.74-.823 2.74H27.54c-2.786 0-3.129-1.212-.787-2.694l32.33-20.46z" fill="#4840BB"/><path d="M60 43.2a3.6 3.6 0 100-7.2 3.6 3.6 0 000 7.2z" fill="#fff"/></svg>