<svg width="120" height="120" viewBox="0 0 120 120" fill="none" xmlns="http://www.w3.org/2000/svg"><path d="M60 120c33.137 0 60-26.863 60-60S93.137 0 60 0 0 26.863 0 60s26.863 60 60 60z" fill="#83E4C8"/><path opacity=".2" fill-rule="evenodd" clip-rule="evenodd" d="M59.156 88.975c0-17.4-14.163-31.507-31.633-31.507 0 17.4 14.163 31.507 31.633 31.507z" fill="#161338"/><path fill-rule="evenodd" clip-rule="evenodd" d="M60.663 88.975c0-17.4 14.163-31.507 31.633-31.507 0 17.4-14.163 31.507-31.633 31.507z" fill="#fff"/><path fill-rule="evenodd" clip-rule="evenodd" d="M61.989 52.799c0 3.987 3.245 7.22 7.25 7.22 4.003 0 7.248-3.233 7.248-7.22 0-3.988-3.245-7.221-7.249-7.221s-7.25 3.233-7.25 7.22zM42.105 52.799c0 3.987 3.245 7.22 7.25 7.22 4.003 0 7.248-3.233 7.248-7.22 0-3.988-3.245-7.221-7.249-7.221s-7.25 3.233-7.25 7.22zM52.731 37.601c0 3.987 3.245 7.22 7.25 7.22 4.003 0 7.249-3.233 7.249-7.22 0-3.987-3.246-7.22-7.25-7.22-4.003 0-7.249 3.233-7.249 7.22z" fill="#4840BB"/></svg>