<svg width="120" height="120" viewBox="0 0 120 120" fill="none" xmlns="http://www.w3.org/2000/svg"><path d="M60 120c33.137 0 60-26.863 60-60S93.137 0 60 0 0 26.863 0 60s26.863 60 60 60z" fill="#83E4C8"/><path d="M34 58.5h54V87a1 1 0 01-1 1H35a1 1 0 01-1-1V58.5z" fill="#fff"/><path opacity=".2" d="M89.887 44.275H31.392a1.2 1.2 0 00-1.2 1.2v11.928a1.2 1.2 0 001.2 1.2h58.495a1.2 1.2 0 001.2-1.2V45.475a1.2 1.2 0 00-1.2-1.2z" fill="#161338"/><path fill-rule="evenodd" clip-rule="evenodd" d="M62.63 44.275a2.253 2.253 0 00-.176-.405 47.019 47.019 0 00-.446-.782 86.419 86.419 0 00-1.205-2.008 83.918 83.918 0 00-4.128-6.098c-2.09-2.795-4.138-5.089-6.121-6.725-4.289-3.54-8.518-4-11.396.108-2.267 3.237-1.627 6.62 1.2 9.496 2.018 2.053 5.122 3.883 9.053 5.564a63.36 63.36 0 002.093.85h11.125zM47.803 31.589c1.674 1.38 3.51 3.437 5.411 5.98a74.397 74.397 0 012.56 3.658 65.284 65.284 0 01-4.666-1.774c-3.457-1.478-6.132-3.056-7.67-4.62-1.48-1.506-1.693-2.633-.742-3.99 1.09-1.555 2.506-1.401 5.107.746z" fill="#4840BB"/><path fill-rule="evenodd" clip-rule="evenodd" d="M59.894 43.074a46.7 46.7 0 00-.448.778c-.078.14-.138.28-.183.423h10.849a67.01 67.01 0 002.417-.997c3.944-1.72 7.055-3.567 9.07-5.605 2.849-2.878 3.481-6.243 1.128-9.394-2.9-3.883-7.047-3.41-11.264 0-2.015 1.63-4.096 3.93-6.217 6.738a82.933 82.933 0 00-4.144 6.061 85.08 85.08 0 00-1.208 1.996zm18.635-8.44c-1.546 1.563-4.243 3.164-7.727 4.684a68.204 68.204 0 01-4.582 1.793 73.323 73.323 0 012.473-3.49c1.927-2.553 3.79-4.611 5.486-5.983 2.559-2.07 3.998-2.233 5.087-.775.929 1.245.733 2.286-.737 3.772z" fill="#4840BB"/></svg>