<svg width="120" height="120" viewBox="0 0 120 120" fill="none" xmlns="http://www.w3.org/2000/svg"><path d="M60 120c33.137 0 60-26.863 60-60S93.137 0 60 0 0 26.863 0 60s26.863 60 60 60z" fill="#83E4C8"/><mask id="a" maskUnits="userSpaceOnUse" x="0" y="0" width="120" height="120"><path d="M60 120c33.137 0 60-26.863 60-60S93.137 0 60 0 0 26.863 0 60s26.863 60 60 60z" fill="#fff"/></mask><g mask="url(#a)"><path d="M70.387 88.8s-3.46 27.153-39.187 29.559" stroke="#4840BB" stroke-width="3"/></g><mask id="b" maskUnits="userSpaceOnUse" x="0" y="0" width="120" height="120"><path d="M60 120c33.137 0 60-26.863 60-60S93.137 0 60 0 0 26.863 0 60s26.863 60 60 60z" fill="#fff"/></mask><g mask="url(#b)"><path d="M-15 16.512c29.63 12.18 32.63 36.327 46.769 45.57C45.744 71.22 56.623 76.47 58.875 77.59c2.346 1.166 5.116 1.425 2.346-3.37-3.517-5.96-13.053-14.324-13.537-20.344-.483-6.02 4.52-8.74 8.708-6.88 3.553 1.577 9.801 4.303 14.527 6.49.464 2.37 8.386 24.643 11.298 30.454 2.277 4.544 2.992 3.516 3.441 3.33 1.457-2.596-6.311-31.741-7.491-36.893a3.498 3.498 0 00-.68-1.423l-7.314-7.26s7.469 3.114 11.298 4.536c7.635 6.31 15.322 13.202 18.772 13.33 2.432.089 3.546-.028-.025-4.381-6.17-7.524-20.985-19.834-26.101-21.39 3.41-.647 17.385 4.27 20.143 3.37 1.602-.522 2.664-1.592 2.18-2.244-.484-.654-19.149-8.12-23.39-9.289-4.24-1.17-37.859-1.02-57.683-18.126" fill="#B49073"/></g><path d="M70.8 97.2a8.4 8.4 0 100-16.8 8.4 8.4 0 000 16.8z" fill="#4840BB"/></svg>