<svg width="120" height="120" viewBox="0 0 120 120" fill="none" xmlns="http://www.w3.org/2000/svg"><g clip-path="url(#clip0)"><path d="M60 119.933c33.137 0 60-26.848 60-59.966C120 26.848 93.137 0 60 0S0 26.848 0 59.967c0 33.118 26.863 59.966 60 59.966z" fill="#83E4C8"/><path d="M41.09 31.183L55 50.525v29.797H27.334c-.671 0-1.21-.54-1.21-1.206l.002-28.591L41.09 31.183z" fill="#4840BB"/><path fill-rule="evenodd" clip-rule="evenodd" d="M95.724 79.19c0 .659-.546 1.193-1.199 1.193l-39.6-.034L55 50.5l40.724-.117v28.806z" fill="#fff"/><path opacity=".2" fill-rule="evenodd" clip-rule="evenodd" d="M81.474 31.183H41.125L55 50.5l41-.128-14.526-19.19z" fill="#161338"/></g><defs><clipPath id="clip0"><path fill="#fff" d="M0 0h120v120H0z"/></clipPath></defs></svg>