<svg width="120" height="120" viewBox="0 0 120 120" fill="none" xmlns="http://www.w3.org/2000/svg"><path d="M60 119.933c33.137 0 60-26.848 60-59.966C120 26.848 93.137 0 60 0S0 26.848 0 59.967c0 33.118 26.863 59.966 60 59.966z" fill="#83E4C8"/><path opacity=".2" d="M60 92.4c17.894 0 32.4-14.506 32.4-32.4S77.894 27.6 60 27.6 27.6 42.106 27.6 60 42.106 92.4 60 92.4z" fill="#161338"/><path fill-rule="evenodd" clip-rule="evenodd" d="M60 27.6c-17.894 0-32.4 14.506-32.4 32.4 57.862 0 30.564-.578 32.4-32.4z" fill="#4840BB"/><path opacity=".2" fill-rule="evenodd" clip-rule="evenodd" d="M27.6 60.055c0 13.502 8.26 25.076 20.002 29.943C59.01 62.548 58.385 59.795 27.6 60.055z" fill="#161338"/><path fill-rule="evenodd" clip-rule="evenodd" d="M97.252 59.21c0-20.73-16.861-37.533-37.661-37.533V59.21h37.661z" fill="#fff"/><path d="M60.271 79.877c10.754 0 19.472-8.748 19.472-19.539 0-10.79-8.718-19.538-19.472-19.538-10.753 0-19.471 8.748-19.471 19.538 0 10.791 8.718 19.539 19.471 19.539z" fill="#9EEAD4"/></svg>