<svg width="120" height="120" viewBox="0 0 120 120" fill="none" xmlns="http://www.w3.org/2000/svg"><path d="M60 119.933c33.137 0 60-26.848 60-59.966C120 26.848 93.137 0 60 0S0 26.848 0 59.967c0 33.118 26.863 59.966 60 59.966z" fill="#83E4C8"/><path d="M63.394 57.97a6.614 6.614 0 01-1.136-.8 6.606 6.606 0 01-5.489 5.16L52.8 97.2h10.223s.996-25.46.37-39.23zM61.44 48.085c-.782-.41-1.654.723-2.344 1.995.373.216.724.467 1.046.75a6.574 6.574 0 011.297-2.745z" fill="#4840BB"/><path opacity=".2" d="M73.2 52.2a6.6 6.6 0 01-10.943 4.97 6.6 6.6 0 11-2.115-6.34A6.6 6.6 0 0173.2 52.2z" fill="#161338"/><path d="M66.387 29.715c7.971-4.061 17.806-.736 21.965 7.427-5.344 2.977-8.73 4.716-11.643 6.137.575.181 1.145.396 1.708.647 8.173 3.64 11.778 13.374 8.052 21.745-8.134-3.267-11.763-5.009-15.74-6.917l-1.264-.606a6.6 6.6 0 10-9.322-7.318 6.6 6.6 0 00-10.299 7.817c-.902.34-1.775.664-2.664.994-3.513 1.304-7.286 2.704-14.133 5.62-3.432-8.494.51-18.098 8.806-21.45.488-.197.98-.368 1.475-.513-2.92-1.425-6.313-3.166-11.68-6.156 4.16-8.163 13.994-11.488 21.966-7.427A15.842 15.842 0 0160 35.657a15.842 15.842 0 016.387-5.94z" fill="#fff"/></svg>