<svg width="120" height="120" viewBox="0 0 120 120" fill="none" xmlns="http://www.w3.org/2000/svg"><path d="M60 119.933c33.137 0 60-26.848 60-59.966C120 26.848 93.137 0 60 0S0 26.848 0 59.967c0 33.118 26.863 59.966 60 59.966z" fill="#83E4C8"/><path d="M30 62c0-7.852 4.498-14.626 10.993-17.754a20.396 20.396 0 01-.084-1.846c0-10.825 8.547-19.6 19.091-19.6v55.287A18.664 18.664 0 0149.09 81.6C38.548 81.6 30 72.825 30 62zM60.065 78.133A18.663 18.663 0 0070.91 81.6h.065a18.664 18.664 0 01-10.844-3.513l-.065.046z" fill="#fff"/><path opacity=".2" d="M60 78.18l.13-.093A18.664 18.664 0 0071.04 81.6c10.543 0 19.09-8.775 19.09-19.6 0-7.852-4.497-14.626-10.992-17.754.055-.608.084-1.224.084-1.846 0-10.825-8.548-19.6-19.091-19.6H60v55.38z" fill="#161338"/><path d="M59.738 53.395v42.531M50.945 58.81l8.112 5.538" stroke="#4840BB" stroke-width="3.465"/><path fill-rule="evenodd" clip-rule="evenodd" d="M69.61 65.106L60 74.82l9.61-9.713z" stroke="#4840BB" stroke-width="3.465"/></svg>