<svg width="120" height="120" viewBox="0 0 120 120" fill="none" xmlns="http://www.w3.org/2000/svg"><path d="M60 120c33.137 0 60-26.863 60-60S93.137 0 60 0 0 26.863 0 60s26.863 60 60 60z" fill="#83E4C8"/><path fill-rule="evenodd" clip-rule="evenodd" d="M64.279 60.035l6.86-6.869-3.513-3.518c-6.805-6.812-17.87-6.836-24.698-.072L30.548 61.84a18.874 18.874 0 00.104 27.021l-1.83-1.784c7.62 7.432 19.921 7.389 27.492-.111l8.453-8.374s-2.993-.136-5.32-.514c-2.328-.378-4.688-1.757-4.688-1.757l-5.45 4.88c-3.695 3.31-9.637 3.259-13.27-.116l.795.74c-3.634-3.375-3.732-8.95-.221-12.45l13.48-13.441c2.576-2.57 6.85-2.646 9.523-.187l4.663 4.287z" fill="#fff"/><path fill-rule="evenodd" clip-rule="evenodd" d="M54.461 59.575L47.6 66.444l3.514 3.518c6.805 6.811 17.87 6.835 24.698.072l13.322-13.198c7.041-6.976 7-18.24-.094-25.16l-.075-.073c-7.093-6.92-18.547-6.878-25.599.108l-9.393 9.306s3.873.15 5.773.462c1.901.311 4.655 2.017 4.655 2.017l5.592-5.425c3.555-3.45 9.278-3.4 12.782.107l-.636-.636c3.505 3.508 3.536 9.238.081 12.786L70.855 61.999c-3.564 3.66-9.517 3.839-13.29.403l-3.104-2.827z" fill="#4840BB"/></svg>