<svg width="120" height="120" viewBox="0 0 120 120" fill="none" xmlns="http://www.w3.org/2000/svg"><path d="M60 120c33.137 0 60-26.863 60-60S93.137 0 60 0 0 26.863 0 60s26.863 60 60 60z" fill="#83E4C8"/><path opacity=".2" fill-rule="evenodd" clip-rule="evenodd" d="M79.897 52.5H92.5v30H43.75v-15h36.147v-15z" fill="#161338"/><path opacity=".2" d="M26.25 46.875h10M26.25 66.875h10M16.25 56.875h20" stroke="#161338" stroke-width="3.75" stroke-linecap="square"/><path d="M86.25 42.5H35v31.25h51.25V42.5z" fill="#fff"/><path d="M60.625 63.75a5.625 5.625 0 100-11.25 5.625 5.625 0 000 11.25zM47.5 61.25a2.5 2.5 0 100-5 2.5 2.5 0 000 5zM72.5 61.25a2.5 2.5 0 100-5 2.5 2.5 0 000 5z" fill="#4840BB"/></svg>