<svg width="120" height="120" viewBox="0 0 120 120" fill="none" xmlns="http://www.w3.org/2000/svg"><mask id="a" maskUnits="userSpaceOnUse" x="0" y="0" width="120" height="120"><path d="M60 120c33.137 0 60-26.863 60-60S93.137 0 60 0 0 26.863 0 60s26.863 60 60 60z" fill="#fff"/></mask><g mask="url(#a)"><path d="M60 120c33.137 0 60-26.863 60-60S93.137 0 60 0 0 26.863 0 60s26.863 60 60 60z" fill="#83E4C8"/><path d="M-3 49.2a4.2 4.2 0 100-8.4 4.2 4.2 0 000 8.4z" fill="#fff"/><path opacity=".2" fill-rule="evenodd" clip-rule="evenodd" d="M81.674 53.468c-3.526-1.112-6.092-4.516-6.092-8.543 0-4.929 3.846-8.925 8.59-8.925 4.745 0 8.59 3.996 8.59 8.925 0 3.992-2.52 7.37-5.998 8.513 7.702 1.134 11.17 7.927 10.405 20.378a1.9 1.9 0 01-1.897 1.784H72.668a1.9 1.9 0 01-1.9-1.85c-.324-12.304 3.311-19.065 10.905-20.282z" fill="#161338"/><path fill-rule="evenodd" clip-rule="evenodd" d="M33.674 53.468c-3.526-1.112-6.092-4.516-6.092-8.543 0-4.929 3.846-8.925 8.59-8.925 4.745 0 8.59 3.996 8.59 8.925 0 3.992-2.52 7.37-5.998 8.513 7.702 1.134 11.17 7.927 10.405 20.378a1.9 1.9 0 01-1.897 1.784H24.669a1.9 1.9 0 01-1.9-1.85c-.324-12.304 3.312-19.065 10.905-20.282z" fill="#4840BB"/><path fill-rule="evenodd" clip-rule="evenodd" d="M57.147 57.735c-4.543-1.347-7.86-5.603-7.86-10.646C49.286 40.965 54.18 36 60.218 36s10.933 4.965 10.933 11.09c0 4.992-3.253 9.214-7.727 10.604 15.435 2.588 13.27 25.14 13.27 25.14-.041 1.312-1.169 2.366-2.478 2.366h-28.59c-1.299 0-2.382-1.06-2.396-2.366 0 0-1.363-22.326 13.916-25.1z" fill="#fff"/></g></svg>