<svg width="120" height="120" viewBox="0 0 120 120" fill="none" xmlns="http://www.w3.org/2000/svg"><mask id="a" maskUnits="userSpaceOnUse" x="0" y="0" width="120" height="120"><path d="M60 120c33.137 0 60-26.863 60-60S93.137 0 60 0 0 26.863 0 60s26.863 60 60 60z" fill="#fff"/></mask><g mask="url(#a)"><path d="M60 120c33.137 0 60-26.863 60-60S93.137 0 60 0 0 26.863 0 60s26.863 60 60 60z" fill="#83E4C8"/><path opacity=".2" fill-rule="evenodd" clip-rule="evenodd" d="M43.028 37.2h35.715v-9.008H43.028V37.2z" fill="#161338"/><path d="M78.743 80.936H43.028V37.2h35.715v43.736z" fill="#fff"/><path fill-rule="evenodd" clip-rule="evenodd" d="M44.465 100.319h32.84c3.697 0 6.693-2.698 6.693-6.026V22.035c0-3.328-2.996-6.026-6.692-6.026h-32.84c-3.697 0-6.692 2.698-6.692 6.026v72.258c0 3.328 2.995 6.026 6.691 6.026zm34.278-19.383H43.028V28.192h35.715v52.744z" fill="#4840BB"/><path fill-rule="evenodd" clip-rule="evenodd" d="M64.05 92.725c0 1.625-1.33 2.942-2.971 2.942s-2.971-1.317-2.971-2.942c0-1.625 1.33-2.942 2.97-2.942 1.641 0 2.971 1.317 2.971 2.942z" fill="#fff"/></g></svg>