<svg width="120" height="120" viewBox="0 0 120 120" fill="none" xmlns="http://www.w3.org/2000/svg"><mask id="a" maskUnits="userSpaceOnUse" x="0" y="0" width="120" height="120"><path d="M60 120c33.137 0 60-26.863 60-60S93.137 0 60 0 0 26.863 0 60s26.863 60 60 60z" fill="#fff"/></mask><g mask="url(#a)"><path d="M60 120c33.137 0 60-26.863 60-60S93.137 0 60 0 0 26.863 0 60s26.863 60 60 60z" fill="#83E4C8"/><path fill-rule="evenodd" clip-rule="evenodd" d="M55.163 61.097h8.516v8.378c-3.98 0-7.206 3.173-7.206 7.088s3.226 7.09 7.206 7.09v8.377H32.235V61.097h8.516c0-3.915 3.226-7.09 7.206-7.09 3.98 0 7.206 3.175 7.206 7.09z" fill="#fff"/><path fill-rule="evenodd" clip-rule="evenodd" d="M62.87 54.051v8.378h31.444V31.496H62.87v8.378c3.98 0 7.206 3.173 7.206 7.088 0 3.916-3.226 7.09-7.206 7.09z" fill="#fff"/><path fill-rule="evenodd" clip-rule="evenodd" d="M85.345 61.097h8.516V92.03H62.417v-8.378c-3.98 0-7.205-3.174-7.205-7.089 0-3.915 3.226-7.088 7.205-7.088v-8.378h8.516c0-3.915 3.227-7.09 7.206-7.09 3.98 0 7.206 3.175 7.206 7.09z" fill="#4840BB"/><path opacity=".2" fill-rule="evenodd" clip-rule="evenodd" d="M52.527 28.843l-2.204-8.225-8.093 2.168c-1.03-3.844-4.93-6.139-8.712-5.126-3.782 1.014-6.012 4.951-4.982 8.795l-8.092 2.169 8.138 30.372 8.092-2.168c-1.03-3.844 1.2-7.782 4.982-8.795 3.782-1.014 7.683 1.281 8.713 5.125l8.092-2.168-2.204-8.226c3.781-1.013 6.012-4.95 4.982-8.795-1.03-3.844-4.93-6.139-8.712-5.126z" fill="#161338"/></g></svg>