<svg width="120" height="120" viewBox="0 0 120 120" fill="none" xmlns="http://www.w3.org/2000/svg"><mask id="a" maskUnits="userSpaceOnUse" x="0" y="0" width="120" height="120"><path d="M60 120c33.137 0 60-26.863 60-60S93.137 0 60 0 0 26.863 0 60s26.863 60 60 60z" fill="#fff"/></mask><g mask="url(#a)"><path d="M60 120c33.137 0 60-26.863 60-60S93.137 0 60 0 0 26.863 0 60s26.863 60 60 60z" fill="#83E4C8"/><path d="M38.173 44.983a4.2 4.2 0 105.287-6.528 4.2 4.2 0 00-5.287 6.528zM48.431 53.29a4.2 4.2 0 105.287-6.528 4.2 4.2 0 00-5.287 6.528zM58.69 61.597a4.2 4.2 0 105.286-6.528 4.2 4.2 0 00-5.286 6.528zM68.948 69.904a4.2 4.2 0 105.287-6.528 4.2 4.2 0 00-5.287 6.528zM79.206 78.21a4.2 4.2 0 105.287-6.527 4.2 4.2 0 00-5.287 6.528zM-3 49.2a4.2 4.2 0 100-8.4 4.2 4.2 0 000 8.4z" fill="#fff"/></g><path d="M30.564 31.48v53.866H91.9" stroke="#4840BB" stroke-width="4" stroke-linecap="round" stroke-linejoin="round"/></svg>