<svg width="120" height="120" viewBox="0 0 120 120" fill="none" xmlns="http://www.w3.org/2000/svg"><path d="M60 120c33.137 0 60-26.863 60-60S93.137 0 60 0 0 26.863 0 60s26.863 60 60 60z" fill="#83E4C8"/><path opacity=".2" d="M28.5 30H93a6 6 0 016 6v45h6v3.75a3.75 3.75 0 01-3.753 3.75H18.753A3.742 3.742 0 0115 84.75V81h7.5V36a6 6 0 016-6z" fill="#161338"/><path opacity=".2" d="M15 81h34.5c0 1.657 1.691 3 3.74 3h15.02c2.065 0 3.74-1.675 3.74-3h33v3.75a3.75 3.75 0 01-3.753 3.75H18.753A3.742 3.742 0 0115 84.75V81z" fill="#161338"/><path d="M28.5 72H93V40.5H28.5V72z" fill="#fff"/><path d="M28.5 42H93v-4.5H28.5V42zM48 49.5v3c0 2.488 2.006 4.5 4.5 4.5 2.488 0 4.5-2.006 4.5-4.5v-3h-3v3c0 .835-.667 1.5-1.5 1.5-.835 0-1.5-.667-1.5-1.5v-3h-3zM64.5 49.5v3c0 2.488 2.006 4.5 4.5 4.5 2.488 0 4.5-2.006 4.5-4.5v-3h-3v3c0 .835-.667 1.5-1.5 1.5-.835 0-1.5-.667-1.5-1.5v-3h-3zM52.5 64.5H69v-3H52.5v3zM108.723.059l.163 1.547a2 2 0 01-.04.658c-.05.219-.128.428-.235.627l-7.371 13.3 8.8-.925.346 3.297-14.252 1.498-.174-1.648c-.02-.195-.006-.39.041-.588.048-.197.122-.382.224-.555l7.392-13.341-8.368.88-.347-3.297L108.723.059zM114.442 40.552l-.095.91c-.014.129-.048.253-.104.373-.055.12-.126.23-.212.332l-5.868 6.752 5.177.544-.204 1.939-8.384-.881.102-.97c.012-.114.044-.225.096-.333.051-.108.117-.205.196-.292l5.885-6.772-4.923-.518.204-1.939 8.13.855z" fill="#4840BB"/></svg>