<svg width="120" height="120" viewBox="0 0 120 120" fill="none" xmlns="http://www.w3.org/2000/svg"><g clip-path="url(#clip0)"><path d="M60 120c33.137 0 60-26.863 60-60S93.137 0 60 0 0 26.863 0 60s26.863 60 60 60z" fill="#83E4C8"/><path opacity=".2" fill-rule="evenodd" clip-rule="evenodd" d="M67.2 81.6a8.8 8.8 0 110-17.6 8.8 8.8 0 010 17.6z" fill="#161338"/><path d="M59.201 76.474A8.769 8.769 0 0158.4 72.8c0-.979.16-1.92.455-2.8H27.524a3.24 3.24 0 00-3.24 3.237 3.231 3.231 0 003.24 3.237H59.2zM75.199 76.474H94.76A3.24 3.24 0 0098 73.237 3.231 3.231 0 0094.76 70H75.545A8.79 8.79 0 0176 72.8a8.767 8.767 0 01-.801 3.674z" fill="#fff"/><path fill-rule="evenodd" clip-rule="evenodd" d="M27.524 50a3.24 3.24 0 00-3.239 3.237 3.231 3.231 0 003.239 3.237H94.76A3.24 3.24 0 0098 53.237 3.231 3.231 0 0094.761 50H27.524z" fill="#fff"/><path fill-rule="evenodd" clip-rule="evenodd" d="M51.45 61.6a8.8 8.8 0 110-17.6 8.8 8.8 0 010 17.6z" fill="#4840BB"/></g><defs><clipPath id="clip0"><path fill="#fff" d="M0 0h120v120H0z"/></clipPath></defs></svg>