<svg width="120" height="120" viewBox="0 0 120 120" fill="none" xmlns="http://www.w3.org/2000/svg"><mask id="a" maskUnits="userSpaceOnUse" x="0" y="0" width="120" height="120"><path d="M60 120c33.137 0 60-26.863 60-60S93.137 0 60 0 0 26.863 0 60s26.863 60 60 60z" fill="#fff"/></mask><g mask="url(#a)"><path opacity=".3" d="M60 120c33.137 0 60-26.863 60-60S93.137 0 60 0 0 26.863 0 60s26.863 60 60 60z" fill="#83E4C8"/><path fill-rule="evenodd" clip-rule="evenodd" d="M2.581 89.033h118.71v37.418H2.581V89.033z" fill="#65BE67"/><path d="M58.065 70.969c7.126 0 12.904-5.778 12.904-12.904 0-7.127-5.778-12.904-12.904-12.904-7.127 0-12.904 5.777-12.904 12.904 0 7.126 5.777 12.904 12.904 12.904z" fill="#F49359"/><path fill-rule="evenodd" clip-rule="evenodd" d="M59.969 67.736s-22.374-7.375-39.653-7.375C3.04 60.361-2.6 69.443-2.6 69.443L.969 85.846l49.887 1.95 9.113-20.06z" fill="#BBF1E2"/><g filter="url(#filter0_i)"><path d="M1.549 86.004S18.499 89.056 40 82.862c21.503-6.193 38.254-32.356 57.791-35.787 19.538-3.431 34.02 7.675 34.02 7.675s-9.161 51.389-40.37 68.8c-31.21 17.412-82.957 0-82.957 0L1.55 86.005l-.001-.001z" fill="#83E4C8"/></g><path d="M8.922 123.167L2.17 86.607l.08.01c.511.073 1.264.169 2.234.264 1.94.191 4.747.38 8.228.375a100.38 100.38 0 0027.427-3.913c10.605-3.055 20.046-10.905 29.129-18.457l.684-.569c4.662-3.874 9.238-7.641 13.864-10.655 4.624-3.013 9.27-5.253 14.062-6.095 9.655-1.695 18.066.2 24.069 2.525a47.452 47.452 0 017.041 3.406c.821.488 1.454.903 1.881 1.194.161.11.292.203.393.275l-.052.268c-.074.378-.187.935-.342 1.651-.31 1.433-.788 3.5-1.459 6.038-1.343 5.074-3.456 12.02-6.542 19.506-6.179 14.995-16.217 32.062-31.67 40.683-15.458 8.625-36.06 8.644-52.874 6.471-8.394-1.085-15.818-2.713-21.143-4.07a157.902 157.902 0 01-6.268-1.729c-.735-.22-1.304-.398-1.688-.52l-.302-.098z" stroke="#67C8AC"/><path d="M1.549 86.004S18.499 89.056 40 82.862c21.503-6.193 38.254-32.356 57.791-35.787 19.538-3.431 34.02 7.675 34.02 7.675s-9.161 51.389-40.37 68.8c-31.21 17.412-82.957 0-82.957 0L1.55 86.005l-.001-.001z" stroke="#67C8AC" stroke-width="8"/></g><defs><filter id="filter0_i" x="-5.451" y="38.417" width="137.263" height="92.872" filterUnits="userSpaceOnUse" color-interpolation-filters="sRGB"><feFlood flood-opacity="0" result="BackgroundImageFix"/><feBlend in="SourceGraphic" in2="BackgroundImageFix" result="shape"/><feColorMatrix in="SourceAlpha" values="0 0 0 0 0 0 0 0 0 0 0 0 0 0 0 0 0 0 127 0" result="hardAlpha"/><feOffset dx="-7" dy="-8"/><feGaussianBlur stdDeviation="5"/><feComposite in2="hardAlpha" operator="arithmetic" k2="-1" k3="1"/><feColorMatrix values="0 0 0 0 0.403922 0 0 0 0 0.784314 0 0 0 0 0.67451 0 0 0 1 0"/><feBlend in2="shape" result="effect1_innerShadow"/></filter></defs></svg>