<svg width="120" height="120" viewBox="0 0 120 120" fill="none" xmlns="http://www.w3.org/2000/svg"><path d="M60 120c33.137 0 60-26.863 60-60S93.137 0 60 0 0 26.863 0 60s26.863 60 60 60z" fill="#83E4C8"/><path fill-rule="evenodd" clip-rule="evenodd" d="M59.765 48.37s8.643-15.872 24.567-16.559c5.063-.218 4.748 0 4.748 0s0 20.453-25.194 25.491c-8.231 1.646-4.718 2.233-4.718 2.233s-25.853-2.561-27.453-24.47c-.111-1.52 18.69 0 27.385 12.445M60 55.286v18.02-18.02z" fill="#4840BB"/><path d="M60 55.286v18.02" stroke="#4840BB" stroke-width="4" stroke-linecap="square"/><path fill-rule="evenodd" clip-rule="evenodd" d="M30.857 88.286c6.732-8.855 17.378-14.572 29.359-14.572 11.981 0 22.627 5.717 29.359 14.572H30.857z" fill="#fff"/></svg>