<svg width="120" height="120" viewBox="0 0 120 120" fill="none" xmlns="http://www.w3.org/2000/svg"><mask id="a" maskUnits="userSpaceOnUse" x="0" y="0" width="120" height="120"><path d="M60 120c33.137 0 60-26.863 60-60S93.137 0 60 0 0 26.863 0 60s26.863 60 60 60z" fill="#fff"/></mask><g mask="url(#a)"><path d="M60 120c33.137 0 60-26.863 60-60S93.137 0 60 0 0 26.863 0 60s26.863 60 60 60z" fill="#83E4C8"/><path fill-rule="evenodd" clip-rule="evenodd" d="M46.834 78.858l2.637 21.405c.08.653.682 1.182 1.356 1.182H69.24c.668 0 1.276-.532 1.358-1.19l2.635-21.24M73.308 40.21l-2.637-21.405c-.08-.653-.682-1.183-1.356-1.183H50.902c-.668 0-1.276.533-1.358 1.19L46.91 40.055" fill="#4840BB"/><path fill-rule="evenodd" clip-rule="evenodd" d="M83.916 59.959c0 13.221-10.707 23.94-23.916 23.94-13.208 0-23.916-10.719-23.916-23.94 0-13.222 10.708-23.94 23.916-23.94 13.209 0 23.916 10.718 23.916 23.94zM60.865 48.666h-2.797v17.411H69.06V63.28h-8.196V48.666z" fill="#fff"/><path opacity=".2" fill-rule="evenodd" clip-rule="evenodd" d="M58.068 48.666h2.797V63.28h8.196v2.797H58.068v-17.41z" fill="#161338"/></g></svg>