<svg width="120" height="120" viewBox="0 0 120 120" fill="none" xmlns="http://www.w3.org/2000/svg"><path d="M60 120c33.137 0 60-26.863 60-60S93.137 0 60 0 0 26.863 0 60s26.863 60 60 60z" fill="#83E4C8"/><mask id="a" maskUnits="userSpaceOnUse" x="0" y="0" width="120" height="120"><path d="M60 120c33.137 0 60-26.863 60-60S93.137 0 60 0 0 26.863 0 60s26.863 60 60 60z" fill="#fff"/></mask><g mask="url(#a)"><path opacity=".2" d="M84.094 86.291L62.53 37.856l2.697-.728c2.91-.786 6.373.783 7.718 3.47l24.874 49.7c.15.267.288.544.415.83 2.289 5.141-.054 11.179-5.233 13.485-5.18 2.306-11.234.007-13.523-5.135-2.197-4.933-.13-10.691 4.616-13.187zm6.696 13.357c2.417-1.076 3.51-3.894 2.442-6.294-1.068-2.4-3.894-3.472-6.31-2.396-2.418 1.076-3.511 3.894-2.443 6.293 1.069 2.4 3.894 3.473 6.311 2.397z" fill="#161338"/><path fill-rule="evenodd" clip-rule="evenodd" d="M73.194 55.774l8.139-25.048L-9.161 1.323-11.947 9.9 37.24 25.882l-3.12 9.603-49.189-15.982-34.501 106.184 90.493 29.403 30.133-92.737L49.59 52.036l23.603 3.738zM32.441 77.482l-51.439-16.713-3.12 9.603L29.32 87.085l3.12-9.603zm-53.839-35.913l51.439 16.713-3.12 9.603-51.439-16.713 3.12-9.603zm67.039 4.713L-5.798 29.569l-3.12 9.603L42.52 55.885l3.12-9.603zM13.47 87.245l-37.15-12.071-3.12 9.603 37.15 12.07 3.12-9.602zm29.448-6.359l9.526 3.096-3.12 9.603-9.526-3.095 3.12-9.603zm4.845 17.5l-9.526-3.094-3.12 9.603 9.526 3.095 3.12-9.603zm-14.206 11.311l9.526 3.095-3.12 9.603-9.526-3.095 3.12-9.603z" fill="#fff"/><path opacity=".2" d="M52.445 83.981l-9.526-3.095-3.12 9.604 9.525 3.095 3.12-9.604zM47.764 98.387l-9.526-3.096-3.12 9.604 9.526 3.095 3.12-9.603zM43.084 112.792l-9.526-3.095-3.12 9.603 9.525 3.095 3.12-9.603z" fill="#161338"/><path opacity=".7" d="M32.44 77.482l-51.438-16.714-3.12 9.604 51.439 16.713 3.12-9.603zM30.04 58.282l-51.438-16.713-3.12 9.603L26.92 67.885l3.12-9.603zM45.64 46.282L-5.797 29.569l-3.12 9.603L42.52 55.885l3.12-9.603zM37.24 25.882L-14.197 9.168l-3.12 9.604 51.439 16.713 3.12-9.603zM13.472 87.244l-37.15-12.07-3.12 9.603 37.15 12.07 3.12-9.603z" fill="#fff"/></g><mask id="b" maskUnits="userSpaceOnUse" x="0" y="0" width="120" height="120"><path d="M60 120c33.137 0 60-26.863 60-60S93.137 0 60 0 0 26.863 0 60s26.863 60 60 60z" fill="#fff"/></mask><g mask="url(#b)"><path fill-rule="evenodd" clip-rule="evenodd" d="M48.462 59.142l51.66 11.927c1.544-5.135 6.802-8.263 12.064-7.048 5.484 1.266 8.896 6.77 7.621 12.295-1.275 5.524-6.755 8.976-12.24 7.71-.304-.07-.602-.154-.893-.25L53.141 68.844c-2.894-.807-5.096-3.908-4.88-6.914l.201-2.787zm60.337 19.55c2.559.59 5.117-1.02 5.712-3.599.595-2.578-.997-5.147-3.557-5.738-2.559-.59-5.116 1.02-5.712 3.598-.595 2.578.997 5.147 3.557 5.738zm-21.85-6.967a2.046 2.046 0 01-1.585 2.42 2.046 2.046 0 01-2.432-1.567 2.046 2.046 0 011.584-2.42 2.046 2.046 0 012.432 1.567z" fill="#4840BB"/></g></svg>