<svg width="120" height="120" viewBox="0 0 120 120" fill="none" xmlns="http://www.w3.org/2000/svg"><path d="M60 120c33.137 0 60-26.863 60-60S93.137 0 60 0 0 26.863 0 60s26.863 60 60 60z" fill="#83E4C8"/><path d="M39.101 46.629H85.37v-4.8H39.1v4.8z" fill="#4840BB"/><path d="M67.418 58.1l3.394 3.394L88.96 43.346 70.733 25.119l-3.394 3.394 14.833 14.833L67.418 58.1z" fill="#4840BB"/><path d="M80.898 73.371H34.63v4.8h46.268v-4.8z" fill="#fff"/><path d="M37.828 76.654L52.582 61.9l-3.394-3.394-18.149 18.148 18.227 18.227 3.395-3.394-14.833-14.833z" fill="#fff"/></svg>