<svg width="120" height="120" viewBox="0 0 120 120" fill="none" xmlns="http://www.w3.org/2000/svg"><path d="M60 120c33.137 0 60-26.863 60-60S93.137 0 60 0 0 26.863 0 60s26.863 60 60 60z" fill="#83E4C8"/><mask id="a" maskUnits="userSpaceOnUse" x="0" y="0" width="120" height="120"><path d="M60 120c33.137 0 60-26.863 60-60S93.137 0 60 0 0 26.863 0 60s26.863 60 60 60z" fill="#fff"/></mask><g mask="url(#a)" stroke="#fff" stroke-width="2"><path d="M98.558 78.292C95.172 102.383 72.56 99.204 72.56 99.204M77.143 92.55l-5.66 6.989 6.966 5.436"/></g><mask id="b" maskUnits="userSpaceOnUse" x="0" y="0" width="120" height="120"><path d="M60 120c33.137 0 60-26.863 60-60S93.137 0 60 0 0 26.863 0 60s26.863 60 60 60z" fill="#fff"/></mask><g mask="url(#b)"><path d="M60.124 56.059l-42.761-9.872a6.857 6.857 0 00-8.224 5.139L-.463 92.917a6.857 6.857 0 005.139 8.224l42.76 9.872a6.856 6.856 0 008.225-5.139l9.602-41.591a6.857 6.857 0 00-5.139-8.224z" fill="#E6F5F1"/><mask id="c" maskUnits="userSpaceOnUse" x="-3" y="44" width="70" height="69"><path d="M60.124 56.059l-42.761-9.872a6.857 6.857 0 00-8.224 5.139L-.463 92.917a6.857 6.857 0 005.139 8.224l42.76 9.872a6.856 6.856 0 008.225-5.139l9.602-41.591a6.857 6.857 0 00-5.139-8.224z" fill="#fff"/></mask><g mask="url(#c)"><path opacity=".404" fill-rule="evenodd" clip-rule="evenodd" d="M45.2 97.237c-5.807-7.502-2.089-19.526 2.559-30.41.187-.439.312-.731-.04-.858-2.25-.805-10.24-1.327-12.59-1.233-.611.024-.701.178-.795.54-5.842 22.588 7.14 31.168 10.616 32.188.085.025.289.1.336.058.046-.042-.026-.203-.087-.285zm-23.707-25.41c-.388.145-.65.12-.665.562-.161 4.799 1.49 19.933 17.707 23.631.38.107.785.126.526-.133-1.854-2.258-9.36-6.32-8.591-24.638.007-.187.17-.869-.582-.821-3.782.368-8.007 1.253-8.395 1.398zm-7.285 10.367c-.418.293-.496.308-.484.62.118 2.89 3.49 8.613 14.473 10.764.52.102.558-.056.335-.317-.145-.17-3.334-2.076-5.814-5.71-1.24-1.817-2.335-4.396-2.926-6.744-.135-.635-.257-1.106-.6-.993-1.135.37-3.95 1.655-4.984 2.38z" fill="#4840BB"/></g></g><path d="M96.394 27.23L51.518 12.648a6.857 6.857 0 00-8.64 4.403L28.736 60.57a6.857 6.857 0 004.402 8.641l44.877 14.581a6.857 6.857 0 008.64-4.402l14.141-43.521a6.857 6.857 0 00-4.403-8.64z" fill="#fff"/><mask id="d" maskUnits="userSpaceOnUse" x="34" y="18" width="62" height="60"><path d="M88.36 18.483H41.174a6.857 6.857 0 00-6.857 6.857v45.761a6.857 6.857 0 006.857 6.857H88.36a6.857 6.857 0 006.857-6.857v-45.76a6.857 6.857 0 00-6.857-6.858z" fill="#fff"/></mask><g mask="url(#d)"><path d="M76.673 69.75c-5.43-8.42-.416-20.71 5.472-31.715.237-.443.396-.739.036-.904-2.294-1.055-10.662-2.344-13.145-2.464-.646-.031-.755.123-.886.495-8.215 23.19 4.673 33.41 8.24 34.803.087.034.295.133.348.093.053-.04-.009-.216-.065-.308zM54.029 40.852c-.423.117-.696.066-.752.53-.608 5.027-.25 21.082 16.49 26.472.39.147.815.205.565-.092-1.746-2.544-9.28-7.509-6.798-26.683.026-.196.258-.898-.537-.917-4.016.036-8.546.574-8.968.69zM45.41 51.07c-.467.27-.55.278-.566.607-.14 3.048 2.889 9.373 14.259 12.652.537.155.592-.007.381-.302-.137-.193-3.321-2.49-5.601-6.538-1.14-2.026-2.057-4.837-2.466-7.358-.084-.68-.169-1.186-.541-1.1-1.229.285-4.311 1.373-5.466 2.039z" fill="#3F4652"/></g></svg>